G04 #@! TF.FileFunction,Copper,L2,Bot,Signal*
%FSLAX46Y46*%
G04 Gerber Fmt 4.6, Leading zero omitted, Abs format (unit mm)*
G04 Created by KiCad (PCBNEW 4.0.6) date Mon Oct 30 10:13:18 2017*
%MOMM*%
%LPD*%
G01*
G04 APERTURE LIST*
%ADD10C,0.100000*%
%ADD11R,2.000000X2.600000*%
%ADD12O,2.000000X2.600000*%
%ADD13O,1.998980X1.998980*%
%ADD14R,1.998980X1.998980*%
%ADD15C,1.524000*%
%ADD16O,1.524000X2.540000*%
%ADD17C,3.200000*%
%ADD18C,1.800000*%
%ADD19C,0.750000*%
%ADD20C,1.000000*%
%ADD21C,0.500000*%
%ADD22C,0.254000*%
G04 APERTURE END LIST*
D10*
D11*
X92710000Y-120015000D03*
D12*
X95250000Y-120015000D03*
X97790000Y-120015000D03*
X100330000Y-120015000D03*
X102870000Y-120015000D03*
X105410000Y-120015000D03*
X107950000Y-120015000D03*
X110490000Y-120015000D03*
X113030000Y-120015000D03*
X115570000Y-120015000D03*
X118110000Y-120015000D03*
X120650000Y-120015000D03*
X123190000Y-120015000D03*
X125730000Y-120015000D03*
X128270000Y-120015000D03*
D13*
X39370000Y-47625000D03*
D14*
X39370000Y-40005000D03*
D13*
X39370000Y-42545000D03*
X39370000Y-45085000D03*
X39370000Y-50165000D03*
X39370000Y-52705000D03*
X39370000Y-55245000D03*
X39370000Y-57785000D03*
D15*
X168910000Y-81915000D03*
X171450000Y-81915000D03*
X173990000Y-81915000D03*
X176530000Y-81915000D03*
X179070000Y-81915000D03*
X48260000Y-95885000D03*
X48260000Y-98425000D03*
X48260000Y-100965000D03*
X48260000Y-103505000D03*
X48260000Y-106045000D03*
X48260000Y-108585000D03*
X178435000Y-56515000D03*
X175895000Y-56515000D03*
X173355000Y-56515000D03*
X170815000Y-56515000D03*
X178435000Y-36195000D03*
X175895000Y-36195000D03*
X173355000Y-36195000D03*
X170815000Y-36195000D03*
X71120000Y-71120000D03*
X68580000Y-71120000D03*
X66040000Y-71120000D03*
X63500000Y-71120000D03*
X161925000Y-108585000D03*
X161925000Y-111125000D03*
X161925000Y-113665000D03*
X161925000Y-116205000D03*
D13*
X78105000Y-59690000D03*
D14*
X78105000Y-67310000D03*
D13*
X78105000Y-64770000D03*
X78105000Y-62230000D03*
X78105000Y-57150000D03*
X78105000Y-54610000D03*
X85725000Y-120015000D03*
D14*
X83185000Y-120015000D03*
D16*
X86360000Y-83185000D03*
X83820000Y-83185000D03*
X81280000Y-83185000D03*
X78740000Y-83185000D03*
X76200000Y-83185000D03*
X73660000Y-83185000D03*
X71120000Y-83185000D03*
X68580000Y-83185000D03*
X68580000Y-34925000D03*
X71120000Y-34925000D03*
X81280000Y-34925000D03*
X78740000Y-34925000D03*
X76200000Y-34925000D03*
X73660000Y-34925000D03*
X93980000Y-34925000D03*
X96520000Y-34925000D03*
X104140000Y-34925000D03*
X101600000Y-34925000D03*
X99060000Y-34925000D03*
X109220000Y-34925000D03*
X111760000Y-34925000D03*
X114300000Y-34925000D03*
X119380000Y-34925000D03*
X121920000Y-34925000D03*
X91440000Y-83185000D03*
X93980000Y-83185000D03*
X96520000Y-83185000D03*
X99060000Y-83185000D03*
X101600000Y-83185000D03*
X104140000Y-83185000D03*
X106680000Y-83185000D03*
X109220000Y-83185000D03*
X113284000Y-83185000D03*
X115824000Y-83185000D03*
X118364000Y-83185000D03*
X120904000Y-83185000D03*
X123444000Y-83185000D03*
X125984000Y-83185000D03*
X128524000Y-83185000D03*
X116840000Y-34925000D03*
D15*
X60960000Y-83185000D03*
X58420000Y-83185000D03*
X58420000Y-55245000D03*
X60960000Y-52705000D03*
X58420000Y-52705000D03*
X60960000Y-50165000D03*
X58420000Y-50165000D03*
X60960000Y-45085000D03*
X58420000Y-45085000D03*
X60960000Y-42545000D03*
X58420000Y-42545000D03*
X60960000Y-40005000D03*
X58420000Y-40005000D03*
D16*
X124460000Y-34925000D03*
X127000000Y-34925000D03*
D15*
X60960000Y-67945000D03*
X60960000Y-70485000D03*
D17*
X172230000Y-100330000D03*
D18*
X176530000Y-107330000D03*
X174030000Y-107330000D03*
X179030000Y-107330000D03*
D19*
X60960000Y-40005000D02*
X58420000Y-40005000D01*
X183515000Y-107315000D02*
X179045000Y-107315000D01*
X179045000Y-107315000D02*
X179030000Y-107330000D01*
D20*
X173355000Y-36195000D02*
X173355000Y-41910000D01*
X174625000Y-116205000D02*
X168275000Y-116205000D01*
X183515000Y-107315000D02*
X174625000Y-116205000D01*
X183515000Y-41910000D02*
X183515000Y-107315000D01*
X173355000Y-41910000D02*
X183515000Y-41910000D01*
X161925000Y-116205000D02*
X161290000Y-116205000D01*
X161290000Y-116205000D02*
X152400000Y-125095000D01*
X92710000Y-125095000D02*
X92710000Y-120015000D01*
X152400000Y-125095000D02*
X92710000Y-125095000D01*
X168910000Y-116205000D02*
X168275000Y-116205000D01*
D19*
X168910000Y-81915000D02*
X168910000Y-116205000D01*
D20*
X168275000Y-116205000D02*
X161925000Y-116205000D01*
D19*
X39370000Y-40005000D02*
X58420000Y-40005000D01*
X60960000Y-83185000D02*
X58420000Y-83185000D01*
X116840000Y-34925000D02*
X116840000Y-31750000D01*
X165100000Y-36195000D02*
X170815000Y-36195000D01*
X160655000Y-31750000D02*
X165100000Y-36195000D01*
X116840000Y-31750000D02*
X160655000Y-31750000D01*
X174030000Y-107330000D02*
X174030000Y-103465000D01*
X171450000Y-91440000D02*
X171450000Y-81915000D01*
X175260000Y-95250000D02*
X171450000Y-91440000D01*
X175260000Y-102235000D02*
X175260000Y-95250000D01*
X174030000Y-103465000D02*
X175260000Y-102235000D01*
X161925000Y-78740000D02*
X171450000Y-78740000D01*
X171450000Y-78740000D02*
X171450000Y-81915000D01*
X58420000Y-83185000D02*
X58420000Y-104775000D01*
X58420000Y-104775000D02*
X57150000Y-106045000D01*
X57150000Y-106045000D02*
X48260000Y-106045000D01*
X161925000Y-108585000D02*
X161925000Y-78740000D01*
X60960000Y-78740000D02*
X60960000Y-83185000D01*
X161925000Y-78740000D02*
X60960000Y-78740000D01*
X65405000Y-51435000D02*
X65405000Y-36830000D01*
X64135000Y-52705000D02*
X65405000Y-51435000D01*
X60960000Y-52705000D02*
X64135000Y-52705000D01*
X36830000Y-47625000D02*
X39370000Y-47625000D01*
X36830000Y-35560000D02*
X36830000Y-47625000D01*
X37465000Y-34925000D02*
X36830000Y-35560000D01*
X63500000Y-34925000D02*
X37465000Y-34925000D01*
X65405000Y-36830000D02*
X63500000Y-34925000D01*
X36830000Y-33020000D02*
X34925000Y-34925000D01*
X62230000Y-57785000D02*
X67310000Y-52705000D01*
X67310000Y-52705000D02*
X67310000Y-36830000D01*
X67310000Y-36830000D02*
X63500000Y-33020000D01*
X63500000Y-33020000D02*
X36830000Y-33020000D01*
X58420000Y-52705000D02*
X56515000Y-52705000D01*
X56515000Y-52705000D02*
X56515000Y-57785000D01*
X56515000Y-57785000D02*
X62230000Y-57785000D01*
X36830000Y-50165000D02*
X39370000Y-50165000D01*
X34925000Y-48260000D02*
X36830000Y-50165000D01*
X34925000Y-34925000D02*
X34925000Y-48260000D01*
D21*
X81153000Y-83312000D02*
X81153000Y-90043000D01*
X110490000Y-91186000D02*
X109347000Y-90043000D01*
X109347000Y-90043000D02*
X81153000Y-90043000D01*
X110490000Y-91186000D02*
X110490000Y-120015000D01*
X81153000Y-83312000D02*
X81280000Y-83185000D01*
X113030000Y-120015000D02*
X113030000Y-89408000D01*
X83820000Y-88646000D02*
X83820000Y-83185000D01*
X83947000Y-88773000D02*
X83820000Y-88646000D01*
X112395000Y-88773000D02*
X83947000Y-88773000D01*
X113030000Y-89408000D02*
X112395000Y-88773000D01*
D19*
X181610000Y-102870000D02*
X177800000Y-102870000D01*
X99060000Y-43815000D02*
X133985000Y-43815000D01*
X133985000Y-43815000D02*
X180340000Y-43815000D01*
X180340000Y-43815000D02*
X181610000Y-45085000D01*
X181610000Y-45085000D02*
X181610000Y-102870000D01*
X99060000Y-34925000D02*
X99060000Y-43815000D01*
X176530000Y-104140000D02*
X176530000Y-107330000D01*
X177800000Y-102870000D02*
X176530000Y-104140000D01*
X173990000Y-81915000D02*
X173990000Y-76200000D01*
X71120000Y-41275000D02*
X71120000Y-34925000D01*
X105410000Y-75565000D02*
X71120000Y-41275000D01*
X173355000Y-75565000D02*
X105410000Y-75565000D01*
X173990000Y-76200000D02*
X173355000Y-75565000D01*
X76200000Y-34925000D02*
X76200000Y-38735000D01*
X179070000Y-74295000D02*
X179070000Y-81915000D01*
X174625000Y-69850000D02*
X179070000Y-74295000D01*
X107315000Y-69850000D02*
X174625000Y-69850000D01*
X76200000Y-38735000D02*
X107315000Y-69850000D01*
X73660000Y-34925000D02*
X73660000Y-40005000D01*
X176530000Y-75565000D02*
X173990000Y-73025000D01*
X173990000Y-73025000D02*
X106680000Y-73025000D01*
X106680000Y-73025000D02*
X73660000Y-40005000D01*
X176530000Y-75565000D02*
X176530000Y-81915000D01*
X53975000Y-47625000D02*
X60960000Y-47625000D01*
X53975000Y-103505000D02*
X53975000Y-47625000D01*
X48260000Y-103505000D02*
X53975000Y-103505000D01*
X60960000Y-47625000D02*
X60960000Y-45085000D01*
X58420000Y-45085000D02*
X54610000Y-45085000D01*
X50800000Y-100965000D02*
X48260000Y-100965000D01*
X50800000Y-100965000D02*
X50800000Y-48895000D01*
X54610000Y-45085000D02*
X50800000Y-48895000D01*
X58420000Y-42545000D02*
X54610000Y-42545000D01*
X48260000Y-48895000D02*
X48260000Y-95885000D01*
X54610000Y-42545000D02*
X48260000Y-48895000D01*
D20*
X109220000Y-34925000D02*
X109220000Y-31750000D01*
X85725000Y-125095000D02*
X85725000Y-120015000D01*
X73025000Y-125095000D02*
X85725000Y-125095000D01*
X62865000Y-114935000D02*
X73025000Y-125095000D01*
X45085000Y-114935000D02*
X62865000Y-114935000D01*
X43180000Y-113030000D02*
X45085000Y-114935000D01*
X43180000Y-70485000D02*
X43180000Y-113030000D01*
X33020000Y-60325000D02*
X43180000Y-70485000D01*
X33020000Y-34290000D02*
X33020000Y-60325000D01*
X35565002Y-31744998D02*
X33020000Y-34290000D01*
X109214998Y-31744998D02*
X35565002Y-31744998D01*
X109220000Y-31750000D02*
X109214998Y-31744998D01*
D19*
X60960000Y-67945000D02*
X60960000Y-66040000D01*
X72390000Y-54610000D02*
X78105000Y-54610000D01*
X60960000Y-66040000D02*
X72390000Y-54610000D01*
D22*
G36*
X191204741Y-30048602D02*
X191802193Y-30447807D01*
X192201398Y-31045257D01*
X192355000Y-31817467D01*
X192355000Y-126932533D01*
X192201398Y-127704743D01*
X191802193Y-128302193D01*
X191204741Y-128701398D01*
X190432533Y-128855000D01*
X26102467Y-128855000D01*
X25330257Y-128701398D01*
X24732807Y-128302193D01*
X24333602Y-127704741D01*
X24180000Y-126932533D01*
X24180000Y-34290000D01*
X31885000Y-34290000D01*
X31885000Y-60325000D01*
X31971397Y-60759346D01*
X32050533Y-60877781D01*
X32217434Y-61127566D01*
X42045000Y-70955132D01*
X42045000Y-113030000D01*
X42131397Y-113464346D01*
X42355674Y-113800000D01*
X42377434Y-113832566D01*
X44282434Y-115737566D01*
X44650654Y-115983603D01*
X45085000Y-116070000D01*
X62394868Y-116070000D01*
X72222434Y-125897566D01*
X72590654Y-126143603D01*
X73025000Y-126230000D01*
X85725000Y-126230000D01*
X86159346Y-126143603D01*
X86527566Y-125897566D01*
X86773603Y-125529346D01*
X86860000Y-125095000D01*
X86860000Y-121206026D01*
X86912781Y-121170759D01*
X87267094Y-120640492D01*
X87334672Y-120300750D01*
X91075000Y-120300750D01*
X91075000Y-121441310D01*
X91171673Y-121674699D01*
X91350302Y-121853327D01*
X91583691Y-121950000D01*
X92424250Y-121950000D01*
X92583000Y-121791250D01*
X92583000Y-120142000D01*
X91233750Y-120142000D01*
X91075000Y-120300750D01*
X87334672Y-120300750D01*
X87391512Y-120015000D01*
X87267094Y-119389508D01*
X86912781Y-118859241D01*
X86507873Y-118588690D01*
X91075000Y-118588690D01*
X91075000Y-119729250D01*
X91233750Y-119888000D01*
X92583000Y-119888000D01*
X92583000Y-118238750D01*
X92424250Y-118080000D01*
X91583691Y-118080000D01*
X91350302Y-118176673D01*
X91171673Y-118355301D01*
X91075000Y-118588690D01*
X86507873Y-118588690D01*
X86382514Y-118504928D01*
X85757022Y-118380510D01*
X85692978Y-118380510D01*
X85067486Y-118504928D01*
X84748582Y-118718013D01*
X84722817Y-118655811D01*
X84544188Y-118477183D01*
X84310799Y-118380510D01*
X83470750Y-118380510D01*
X83312000Y-118539260D01*
X83312000Y-119888000D01*
X83332000Y-119888000D01*
X83332000Y-120142000D01*
X83312000Y-120142000D01*
X83312000Y-121490740D01*
X83470750Y-121649490D01*
X84310799Y-121649490D01*
X84544188Y-121552817D01*
X84590000Y-121507005D01*
X84590000Y-123960000D01*
X73495132Y-123960000D01*
X69835882Y-120300750D01*
X81550510Y-120300750D01*
X81550510Y-121140800D01*
X81647183Y-121374189D01*
X81825812Y-121552817D01*
X82059201Y-121649490D01*
X82899250Y-121649490D01*
X83058000Y-121490740D01*
X83058000Y-120142000D01*
X81709260Y-120142000D01*
X81550510Y-120300750D01*
X69835882Y-120300750D01*
X68424332Y-118889200D01*
X81550510Y-118889200D01*
X81550510Y-119729250D01*
X81709260Y-119888000D01*
X83058000Y-119888000D01*
X83058000Y-118539260D01*
X82899250Y-118380510D01*
X82059201Y-118380510D01*
X81825812Y-118477183D01*
X81647183Y-118655811D01*
X81550510Y-118889200D01*
X68424332Y-118889200D01*
X63667566Y-114132434D01*
X63587002Y-114078603D01*
X63299346Y-113886397D01*
X62865000Y-113800000D01*
X45555132Y-113800000D01*
X44315000Y-112559868D01*
X44315000Y-109565213D01*
X47459392Y-109565213D01*
X47528857Y-109807397D01*
X48052302Y-109994144D01*
X48607368Y-109966362D01*
X48991143Y-109807397D01*
X49060608Y-109565213D01*
X48260000Y-108764605D01*
X47459392Y-109565213D01*
X44315000Y-109565213D01*
X44315000Y-108377302D01*
X46850856Y-108377302D01*
X46878638Y-108932368D01*
X47037603Y-109316143D01*
X47279787Y-109385608D01*
X48080395Y-108585000D01*
X48439605Y-108585000D01*
X49240213Y-109385608D01*
X49482397Y-109316143D01*
X49669144Y-108792698D01*
X49641362Y-108237632D01*
X49482397Y-107853857D01*
X49240213Y-107784392D01*
X48439605Y-108585000D01*
X48080395Y-108585000D01*
X47279787Y-107784392D01*
X47037603Y-107853857D01*
X46850856Y-108377302D01*
X44315000Y-108377302D01*
X44315000Y-70485000D01*
X44228603Y-70050654D01*
X43982566Y-69682434D01*
X34155000Y-59854868D01*
X34155000Y-48890634D01*
X34210822Y-48974178D01*
X36115822Y-50879178D01*
X36443490Y-51098118D01*
X36830000Y-51175000D01*
X38095452Y-51175000D01*
X38214241Y-51352781D01*
X38337290Y-51435000D01*
X38214241Y-51517219D01*
X37859928Y-52047486D01*
X37735510Y-52672978D01*
X37735510Y-52737022D01*
X37859928Y-53362514D01*
X38214241Y-53892781D01*
X38337290Y-53975000D01*
X38214241Y-54057219D01*
X37859928Y-54587486D01*
X37735510Y-55212978D01*
X37735510Y-55277022D01*
X37859928Y-55902514D01*
X38214241Y-56432781D01*
X38337290Y-56515000D01*
X38214241Y-56597219D01*
X37859928Y-57127486D01*
X37735510Y-57752978D01*
X37735510Y-57817022D01*
X37859928Y-58442514D01*
X38214241Y-58972781D01*
X38744508Y-59327094D01*
X39370000Y-59451512D01*
X39995492Y-59327094D01*
X40525759Y-58972781D01*
X40880072Y-58442514D01*
X41004490Y-57817022D01*
X41004490Y-57752978D01*
X40880072Y-57127486D01*
X40525759Y-56597219D01*
X40402710Y-56515000D01*
X40525759Y-56432781D01*
X40880072Y-55902514D01*
X41004490Y-55277022D01*
X41004490Y-55212978D01*
X40880072Y-54587486D01*
X40525759Y-54057219D01*
X40402710Y-53975000D01*
X40525759Y-53892781D01*
X40880072Y-53362514D01*
X41004490Y-52737022D01*
X41004490Y-52672978D01*
X40880072Y-52047486D01*
X40525759Y-51517219D01*
X40402710Y-51435000D01*
X40525759Y-51352781D01*
X40880072Y-50822514D01*
X41004490Y-50197022D01*
X41004490Y-50132978D01*
X40880072Y-49507486D01*
X40525759Y-48977219D01*
X40402710Y-48895000D01*
X40525759Y-48812781D01*
X40880072Y-48282514D01*
X41004490Y-47657022D01*
X41004490Y-47592978D01*
X40880072Y-46967486D01*
X40525759Y-46437219D01*
X40402710Y-46355000D01*
X40525759Y-46272781D01*
X40880072Y-45742514D01*
X41004490Y-45117022D01*
X41004490Y-45052978D01*
X40880072Y-44427486D01*
X40525759Y-43897219D01*
X40402710Y-43815000D01*
X40525759Y-43732781D01*
X40880072Y-43202514D01*
X41004490Y-42577022D01*
X41004490Y-42512978D01*
X40880072Y-41887486D01*
X40666987Y-41568582D01*
X40729189Y-41542817D01*
X40907817Y-41364188D01*
X41004490Y-41130799D01*
X41004490Y-40290750D01*
X40845740Y-40132000D01*
X39497000Y-40132000D01*
X39497000Y-40152000D01*
X39243000Y-40152000D01*
X39243000Y-40132000D01*
X39223000Y-40132000D01*
X39223000Y-39878000D01*
X39243000Y-39878000D01*
X39243000Y-38529260D01*
X39497000Y-38529260D01*
X39497000Y-39878000D01*
X40845740Y-39878000D01*
X40926438Y-39797302D01*
X57010856Y-39797302D01*
X57038638Y-40352368D01*
X57197603Y-40736143D01*
X57439787Y-40805608D01*
X58240395Y-40005000D01*
X58599605Y-40005000D01*
X59400213Y-40805608D01*
X59642397Y-40736143D01*
X59686453Y-40612656D01*
X59737603Y-40736143D01*
X59979787Y-40805608D01*
X60780395Y-40005000D01*
X61139605Y-40005000D01*
X61940213Y-40805608D01*
X62182397Y-40736143D01*
X62369144Y-40212698D01*
X62341362Y-39657632D01*
X62182397Y-39273857D01*
X61940213Y-39204392D01*
X61139605Y-40005000D01*
X60780395Y-40005000D01*
X59979787Y-39204392D01*
X59737603Y-39273857D01*
X59693547Y-39397344D01*
X59642397Y-39273857D01*
X59400213Y-39204392D01*
X58599605Y-40005000D01*
X58240395Y-40005000D01*
X57439787Y-39204392D01*
X57197603Y-39273857D01*
X57010856Y-39797302D01*
X40926438Y-39797302D01*
X41004490Y-39719250D01*
X41004490Y-39024787D01*
X57619392Y-39024787D01*
X58420000Y-39825395D01*
X59220608Y-39024787D01*
X60159392Y-39024787D01*
X60960000Y-39825395D01*
X61760608Y-39024787D01*
X61691143Y-38782603D01*
X61167698Y-38595856D01*
X60612632Y-38623638D01*
X60228857Y-38782603D01*
X60159392Y-39024787D01*
X59220608Y-39024787D01*
X59151143Y-38782603D01*
X58627698Y-38595856D01*
X58072632Y-38623638D01*
X57688857Y-38782603D01*
X57619392Y-39024787D01*
X41004490Y-39024787D01*
X41004490Y-38879201D01*
X40907817Y-38645812D01*
X40729189Y-38467183D01*
X40495800Y-38370510D01*
X39655750Y-38370510D01*
X39497000Y-38529260D01*
X39243000Y-38529260D01*
X39084250Y-38370510D01*
X38244200Y-38370510D01*
X38010811Y-38467183D01*
X37840000Y-38637995D01*
X37840000Y-35978356D01*
X37883356Y-35935000D01*
X63081644Y-35935000D01*
X64395000Y-37248356D01*
X64395000Y-51016644D01*
X63716644Y-51695000D01*
X61925696Y-51695000D01*
X61752370Y-51521371D01*
X61544488Y-51435051D01*
X61750303Y-51350010D01*
X62143629Y-50957370D01*
X62356757Y-50444100D01*
X62357242Y-49888339D01*
X62145010Y-49374697D01*
X61752370Y-48981371D01*
X61239100Y-48768243D01*
X60683339Y-48767758D01*
X60169697Y-48979990D01*
X59776371Y-49372630D01*
X59690051Y-49580512D01*
X59605010Y-49374697D01*
X59212370Y-48981371D01*
X58699100Y-48768243D01*
X58143339Y-48767758D01*
X57629697Y-48979990D01*
X57236371Y-49372630D01*
X57023243Y-49885900D01*
X57022758Y-50441661D01*
X57234990Y-50955303D01*
X57627630Y-51348629D01*
X57835512Y-51434949D01*
X57629697Y-51519990D01*
X57454381Y-51695000D01*
X56515000Y-51695000D01*
X56128490Y-51771882D01*
X55800822Y-51990822D01*
X55581882Y-52318490D01*
X55505000Y-52705000D01*
X55505000Y-57785000D01*
X55581882Y-58171510D01*
X55800822Y-58499178D01*
X56128490Y-58718118D01*
X56515000Y-58795000D01*
X62230000Y-58795000D01*
X62616510Y-58718118D01*
X62944178Y-58499178D01*
X68024178Y-53419178D01*
X68243118Y-53091510D01*
X68320000Y-52705000D01*
X68320000Y-36830000D01*
X68317018Y-36815011D01*
X68580000Y-36867321D01*
X69114609Y-36760981D01*
X69567828Y-36458149D01*
X69850000Y-36035850D01*
X70110000Y-36424966D01*
X70110000Y-41275000D01*
X70186882Y-41661510D01*
X70405822Y-41989178D01*
X104695822Y-76279178D01*
X105023490Y-76498118D01*
X105410000Y-76575000D01*
X172936644Y-76575000D01*
X172980000Y-76618356D01*
X172980000Y-80949304D01*
X172806371Y-81122630D01*
X172720051Y-81330512D01*
X172635010Y-81124697D01*
X172460000Y-80949381D01*
X172460000Y-78740000D01*
X172383118Y-78353490D01*
X172164178Y-78025822D01*
X171836510Y-77806882D01*
X171450000Y-77730000D01*
X60960000Y-77730000D01*
X60573490Y-77806882D01*
X60245822Y-78025822D01*
X60026882Y-78353490D01*
X59950000Y-78740000D01*
X59950000Y-82175000D01*
X59385696Y-82175000D01*
X59212370Y-82001371D01*
X58699100Y-81788243D01*
X58143339Y-81787758D01*
X57629697Y-81999990D01*
X57236371Y-82392630D01*
X57023243Y-82905900D01*
X57022758Y-83461661D01*
X57234990Y-83975303D01*
X57410000Y-84150619D01*
X57410000Y-104356644D01*
X56731644Y-105035000D01*
X49225696Y-105035000D01*
X49052370Y-104861371D01*
X48844488Y-104775051D01*
X49050303Y-104690010D01*
X49225619Y-104515000D01*
X53975000Y-104515000D01*
X54361510Y-104438118D01*
X54689178Y-104219178D01*
X54908118Y-103891510D01*
X54985000Y-103505000D01*
X54985000Y-68221661D01*
X59562758Y-68221661D01*
X59774990Y-68735303D01*
X60167630Y-69128629D01*
X60375512Y-69214949D01*
X60169697Y-69299990D01*
X59776371Y-69692630D01*
X59563243Y-70205900D01*
X59562758Y-70761661D01*
X59774990Y-71275303D01*
X60167630Y-71668629D01*
X60680900Y-71881757D01*
X61236661Y-71882242D01*
X61750303Y-71670010D01*
X62102827Y-71318101D01*
X62102758Y-71396661D01*
X62314990Y-71910303D01*
X62707630Y-72303629D01*
X63220900Y-72516757D01*
X63776661Y-72517242D01*
X64290303Y-72305010D01*
X64495457Y-72100213D01*
X65239392Y-72100213D01*
X65308857Y-72342397D01*
X65832302Y-72529144D01*
X66387368Y-72501362D01*
X66771143Y-72342397D01*
X66840608Y-72100213D01*
X66040000Y-71299605D01*
X65239392Y-72100213D01*
X64495457Y-72100213D01*
X64683629Y-71912370D01*
X64763395Y-71720273D01*
X64817603Y-71851143D01*
X65059787Y-71920608D01*
X65860395Y-71120000D01*
X66219605Y-71120000D01*
X67020213Y-71920608D01*
X67262397Y-71851143D01*
X67312509Y-71710682D01*
X67394990Y-71910303D01*
X67787630Y-72303629D01*
X68300900Y-72516757D01*
X68856661Y-72517242D01*
X69370303Y-72305010D01*
X69763629Y-71912370D01*
X69849949Y-71704488D01*
X69934990Y-71910303D01*
X70327630Y-72303629D01*
X70840900Y-72516757D01*
X71396661Y-72517242D01*
X71910303Y-72305010D01*
X72303629Y-71912370D01*
X72516757Y-71399100D01*
X72517242Y-70843339D01*
X72305010Y-70329697D01*
X71912370Y-69936371D01*
X71399100Y-69723243D01*
X70843339Y-69722758D01*
X70329697Y-69934990D01*
X69936371Y-70327630D01*
X69850051Y-70535512D01*
X69765010Y-70329697D01*
X69372370Y-69936371D01*
X68859100Y-69723243D01*
X68303339Y-69722758D01*
X67789697Y-69934990D01*
X67396371Y-70327630D01*
X67316605Y-70519727D01*
X67262397Y-70388857D01*
X67020213Y-70319392D01*
X66219605Y-71120000D01*
X65860395Y-71120000D01*
X65059787Y-70319392D01*
X64817603Y-70388857D01*
X64767491Y-70529318D01*
X64685010Y-70329697D01*
X64495432Y-70139787D01*
X65239392Y-70139787D01*
X66040000Y-70940395D01*
X66840608Y-70139787D01*
X66771143Y-69897603D01*
X66247698Y-69710856D01*
X65692632Y-69738638D01*
X65308857Y-69897603D01*
X65239392Y-70139787D01*
X64495432Y-70139787D01*
X64292370Y-69936371D01*
X63779100Y-69723243D01*
X63223339Y-69722758D01*
X62709697Y-69934990D01*
X62357173Y-70286899D01*
X62357242Y-70208339D01*
X62145010Y-69694697D01*
X61752370Y-69301371D01*
X61544488Y-69215051D01*
X61750303Y-69130010D01*
X62143629Y-68737370D01*
X62356757Y-68224100D01*
X62357242Y-67668339D01*
X62145010Y-67154697D01*
X61970000Y-66979381D01*
X61970000Y-66458356D01*
X62117846Y-66310510D01*
X76458070Y-66310510D01*
X76458070Y-68309490D01*
X76502348Y-68544807D01*
X76641420Y-68760931D01*
X76853620Y-68905921D01*
X77105510Y-68956930D01*
X79104490Y-68956930D01*
X79339807Y-68912652D01*
X79555931Y-68773580D01*
X79700921Y-68561380D01*
X79751930Y-68309490D01*
X79751930Y-66310510D01*
X79707652Y-66075193D01*
X79568580Y-65859069D01*
X79402527Y-65745610D01*
X79615072Y-65427514D01*
X79739490Y-64802022D01*
X79739490Y-64737978D01*
X79615072Y-64112486D01*
X79260759Y-63582219D01*
X79111700Y-63482621D01*
X79428068Y-63189726D01*
X79694627Y-62610355D01*
X79575807Y-62357000D01*
X78232000Y-62357000D01*
X78232000Y-62377000D01*
X77978000Y-62377000D01*
X77978000Y-62357000D01*
X76634193Y-62357000D01*
X76515373Y-62610355D01*
X76781932Y-63189726D01*
X77098300Y-63482621D01*
X76949241Y-63582219D01*
X76594928Y-64112486D01*
X76470510Y-64737978D01*
X76470510Y-64802022D01*
X76594928Y-65427514D01*
X76808453Y-65747077D01*
X76654069Y-65846420D01*
X76509079Y-66058620D01*
X76458070Y-66310510D01*
X62117846Y-66310510D01*
X72808356Y-55620000D01*
X76830452Y-55620000D01*
X76949241Y-55797781D01*
X77072290Y-55880000D01*
X76949241Y-55962219D01*
X76594928Y-56492486D01*
X76470510Y-57117978D01*
X76470510Y-57182022D01*
X76594928Y-57807514D01*
X76949241Y-58337781D01*
X77072290Y-58420000D01*
X76949241Y-58502219D01*
X76594928Y-59032486D01*
X76470510Y-59657978D01*
X76470510Y-59722022D01*
X76594928Y-60347514D01*
X76949241Y-60877781D01*
X77098300Y-60977379D01*
X76781932Y-61270274D01*
X76515373Y-61849645D01*
X76634193Y-62103000D01*
X77978000Y-62103000D01*
X77978000Y-62083000D01*
X78232000Y-62083000D01*
X78232000Y-62103000D01*
X79575807Y-62103000D01*
X79694627Y-61849645D01*
X79428068Y-61270274D01*
X79111700Y-60977379D01*
X79260759Y-60877781D01*
X79615072Y-60347514D01*
X79739490Y-59722022D01*
X79739490Y-59657978D01*
X79615072Y-59032486D01*
X79260759Y-58502219D01*
X79137710Y-58420000D01*
X79260759Y-58337781D01*
X79615072Y-57807514D01*
X79739490Y-57182022D01*
X79739490Y-57117978D01*
X79615072Y-56492486D01*
X79260759Y-55962219D01*
X79137710Y-55880000D01*
X79260759Y-55797781D01*
X79615072Y-55267514D01*
X79739490Y-54642022D01*
X79739490Y-54577978D01*
X79615072Y-53952486D01*
X79260759Y-53422219D01*
X78730492Y-53067906D01*
X78105000Y-52943488D01*
X77479508Y-53067906D01*
X76949241Y-53422219D01*
X76830452Y-53600000D01*
X72390000Y-53600000D01*
X72003490Y-53676882D01*
X71675822Y-53895822D01*
X60245822Y-65325822D01*
X60026882Y-65653490D01*
X59950000Y-66040000D01*
X59950000Y-66979304D01*
X59776371Y-67152630D01*
X59563243Y-67665900D01*
X59562758Y-68221661D01*
X54985000Y-68221661D01*
X54985000Y-48635000D01*
X60960000Y-48635000D01*
X61346510Y-48558118D01*
X61674178Y-48339178D01*
X61893118Y-48011510D01*
X61970000Y-47625000D01*
X61970000Y-46050696D01*
X62143629Y-45877370D01*
X62356757Y-45364100D01*
X62357242Y-44808339D01*
X62145010Y-44294697D01*
X61752370Y-43901371D01*
X61544488Y-43815051D01*
X61750303Y-43730010D01*
X62143629Y-43337370D01*
X62356757Y-42824100D01*
X62357242Y-42268339D01*
X62145010Y-41754697D01*
X61752370Y-41361371D01*
X61560273Y-41281605D01*
X61691143Y-41227397D01*
X61760608Y-40985213D01*
X60960000Y-40184605D01*
X60159392Y-40985213D01*
X60228857Y-41227397D01*
X60369318Y-41277509D01*
X60169697Y-41359990D01*
X59776371Y-41752630D01*
X59690051Y-41960512D01*
X59605010Y-41754697D01*
X59212370Y-41361371D01*
X59020273Y-41281605D01*
X59151143Y-41227397D01*
X59220608Y-40985213D01*
X58420000Y-40184605D01*
X57619392Y-40985213D01*
X57688857Y-41227397D01*
X57829318Y-41277509D01*
X57629697Y-41359990D01*
X57454381Y-41535000D01*
X54610000Y-41535000D01*
X54223490Y-41611882D01*
X53895822Y-41830822D01*
X47545822Y-48180822D01*
X47326882Y-48508490D01*
X47250000Y-48895000D01*
X47250000Y-94919304D01*
X47076371Y-95092630D01*
X46863243Y-95605900D01*
X46862758Y-96161661D01*
X47074990Y-96675303D01*
X47467630Y-97068629D01*
X47675512Y-97154949D01*
X47469697Y-97239990D01*
X47076371Y-97632630D01*
X46863243Y-98145900D01*
X46862758Y-98701661D01*
X47074990Y-99215303D01*
X47467630Y-99608629D01*
X47675512Y-99694949D01*
X47469697Y-99779990D01*
X47076371Y-100172630D01*
X46863243Y-100685900D01*
X46862758Y-101241661D01*
X47074990Y-101755303D01*
X47467630Y-102148629D01*
X47675512Y-102234949D01*
X47469697Y-102319990D01*
X47076371Y-102712630D01*
X46863243Y-103225900D01*
X46862758Y-103781661D01*
X47074990Y-104295303D01*
X47467630Y-104688629D01*
X47675512Y-104774949D01*
X47469697Y-104859990D01*
X47076371Y-105252630D01*
X46863243Y-105765900D01*
X46862758Y-106321661D01*
X47074990Y-106835303D01*
X47467630Y-107228629D01*
X47659727Y-107308395D01*
X47528857Y-107362603D01*
X47459392Y-107604787D01*
X48260000Y-108405395D01*
X49060608Y-107604787D01*
X48991143Y-107362603D01*
X48850682Y-107312491D01*
X49050303Y-107230010D01*
X49225619Y-107055000D01*
X57150000Y-107055000D01*
X57536510Y-106978118D01*
X57864178Y-106759178D01*
X59134178Y-105489178D01*
X59353118Y-105161510D01*
X59430000Y-104775000D01*
X59430000Y-84195000D01*
X59994304Y-84195000D01*
X60167630Y-84368629D01*
X60680900Y-84581757D01*
X61236661Y-84582242D01*
X61750303Y-84370010D01*
X62143629Y-83977370D01*
X62356757Y-83464100D01*
X62357242Y-82908339D01*
X62246235Y-82639679D01*
X67183000Y-82639679D01*
X67183000Y-83730321D01*
X67289340Y-84264930D01*
X67592172Y-84718149D01*
X68045391Y-85020981D01*
X68580000Y-85127321D01*
X69114609Y-85020981D01*
X69567828Y-84718149D01*
X69850000Y-84295850D01*
X70132172Y-84718149D01*
X70585391Y-85020981D01*
X71120000Y-85127321D01*
X71654609Y-85020981D01*
X72107828Y-84718149D01*
X72390000Y-84295850D01*
X72672172Y-84718149D01*
X73125391Y-85020981D01*
X73660000Y-85127321D01*
X74194609Y-85020981D01*
X74647828Y-84718149D01*
X74930000Y-84295850D01*
X75212172Y-84718149D01*
X75665391Y-85020981D01*
X76200000Y-85127321D01*
X76734609Y-85020981D01*
X77187828Y-84718149D01*
X77470000Y-84295850D01*
X77752172Y-84718149D01*
X78205391Y-85020981D01*
X78740000Y-85127321D01*
X79274609Y-85020981D01*
X79727828Y-84718149D01*
X80010000Y-84295850D01*
X80268000Y-84681973D01*
X80268000Y-90043000D01*
X80335367Y-90381675D01*
X80527210Y-90668790D01*
X80814325Y-90860633D01*
X81153000Y-90928000D01*
X108980420Y-90928000D01*
X109605000Y-91552579D01*
X109605000Y-118339815D01*
X109333880Y-118520971D01*
X109220000Y-118691405D01*
X109106120Y-118520971D01*
X108575687Y-118166548D01*
X107950000Y-118042091D01*
X107324313Y-118166548D01*
X106793880Y-118520971D01*
X106680000Y-118691405D01*
X106566120Y-118520971D01*
X106035687Y-118166548D01*
X105410000Y-118042091D01*
X104784313Y-118166548D01*
X104253880Y-118520971D01*
X104140000Y-118691405D01*
X104026120Y-118520971D01*
X103495687Y-118166548D01*
X102870000Y-118042091D01*
X102244313Y-118166548D01*
X101713880Y-118520971D01*
X101600000Y-118691405D01*
X101486120Y-118520971D01*
X100955687Y-118166548D01*
X100330000Y-118042091D01*
X99704313Y-118166548D01*
X99173880Y-118520971D01*
X99060000Y-118691405D01*
X98946120Y-118520971D01*
X98415687Y-118166548D01*
X97790000Y-118042091D01*
X97164313Y-118166548D01*
X96633880Y-118520971D01*
X96520000Y-118691405D01*
X96406120Y-118520971D01*
X95875687Y-118166548D01*
X95250000Y-118042091D01*
X94624313Y-118166548D01*
X94268594Y-118404231D01*
X94248327Y-118355301D01*
X94069698Y-118176673D01*
X93836309Y-118080000D01*
X92995750Y-118080000D01*
X92837000Y-118238750D01*
X92837000Y-119888000D01*
X92857000Y-119888000D01*
X92857000Y-120142000D01*
X92837000Y-120142000D01*
X92837000Y-121791250D01*
X92995750Y-121950000D01*
X93836309Y-121950000D01*
X94069698Y-121853327D01*
X94248327Y-121674699D01*
X94268594Y-121625769D01*
X94624313Y-121863452D01*
X95250000Y-121987909D01*
X95875687Y-121863452D01*
X96406120Y-121509029D01*
X96520000Y-121338595D01*
X96633880Y-121509029D01*
X97164313Y-121863452D01*
X97790000Y-121987909D01*
X98415687Y-121863452D01*
X98946120Y-121509029D01*
X99060000Y-121338595D01*
X99173880Y-121509029D01*
X99704313Y-121863452D01*
X100330000Y-121987909D01*
X100955687Y-121863452D01*
X101486120Y-121509029D01*
X101600000Y-121338595D01*
X101713880Y-121509029D01*
X102244313Y-121863452D01*
X102870000Y-121987909D01*
X103495687Y-121863452D01*
X104026120Y-121509029D01*
X104140000Y-121338595D01*
X104253880Y-121509029D01*
X104784313Y-121863452D01*
X105410000Y-121987909D01*
X106035687Y-121863452D01*
X106566120Y-121509029D01*
X106680000Y-121338595D01*
X106793880Y-121509029D01*
X107324313Y-121863452D01*
X107950000Y-121987909D01*
X108575687Y-121863452D01*
X109106120Y-121509029D01*
X109220000Y-121338595D01*
X109333880Y-121509029D01*
X109864313Y-121863452D01*
X110490000Y-121987909D01*
X111115687Y-121863452D01*
X111646120Y-121509029D01*
X111760000Y-121338595D01*
X111873880Y-121509029D01*
X112404313Y-121863452D01*
X113030000Y-121987909D01*
X113655687Y-121863452D01*
X114186120Y-121509029D01*
X114300000Y-121338595D01*
X114413880Y-121509029D01*
X114944313Y-121863452D01*
X115570000Y-121987909D01*
X116195687Y-121863452D01*
X116726120Y-121509029D01*
X116840000Y-121338595D01*
X116953880Y-121509029D01*
X117484313Y-121863452D01*
X118110000Y-121987909D01*
X118735687Y-121863452D01*
X119266120Y-121509029D01*
X119380000Y-121338595D01*
X119493880Y-121509029D01*
X120024313Y-121863452D01*
X120650000Y-121987909D01*
X121275687Y-121863452D01*
X121806120Y-121509029D01*
X121920000Y-121338595D01*
X122033880Y-121509029D01*
X122564313Y-121863452D01*
X123190000Y-121987909D01*
X123815687Y-121863452D01*
X124346120Y-121509029D01*
X124460000Y-121338595D01*
X124573880Y-121509029D01*
X125104313Y-121863452D01*
X125730000Y-121987909D01*
X126355687Y-121863452D01*
X126886120Y-121509029D01*
X127000000Y-121338595D01*
X127113880Y-121509029D01*
X127644313Y-121863452D01*
X128270000Y-121987909D01*
X128895687Y-121863452D01*
X129426120Y-121509029D01*
X129780543Y-120978596D01*
X129905000Y-120352909D01*
X129905000Y-119677091D01*
X129780543Y-119051404D01*
X129426120Y-118520971D01*
X128895687Y-118166548D01*
X128270000Y-118042091D01*
X127644313Y-118166548D01*
X127113880Y-118520971D01*
X127000000Y-118691405D01*
X126886120Y-118520971D01*
X126355687Y-118166548D01*
X125730000Y-118042091D01*
X125104313Y-118166548D01*
X124573880Y-118520971D01*
X124460000Y-118691405D01*
X124346120Y-118520971D01*
X123815687Y-118166548D01*
X123190000Y-118042091D01*
X122564313Y-118166548D01*
X122033880Y-118520971D01*
X121920000Y-118691405D01*
X121806120Y-118520971D01*
X121275687Y-118166548D01*
X120650000Y-118042091D01*
X120024313Y-118166548D01*
X119493880Y-118520971D01*
X119380000Y-118691405D01*
X119266120Y-118520971D01*
X118735687Y-118166548D01*
X118110000Y-118042091D01*
X117484313Y-118166548D01*
X116953880Y-118520971D01*
X116840000Y-118691405D01*
X116726120Y-118520971D01*
X116195687Y-118166548D01*
X115570000Y-118042091D01*
X114944313Y-118166548D01*
X114413880Y-118520971D01*
X114300000Y-118691405D01*
X114186120Y-118520971D01*
X113915000Y-118339815D01*
X113915000Y-117185213D01*
X161124392Y-117185213D01*
X161193857Y-117427397D01*
X161717302Y-117614144D01*
X162272368Y-117586362D01*
X162656143Y-117427397D01*
X162725608Y-117185213D01*
X161925000Y-116384605D01*
X161124392Y-117185213D01*
X113915000Y-117185213D01*
X113915000Y-115997302D01*
X160515856Y-115997302D01*
X160543638Y-116552368D01*
X160702603Y-116936143D01*
X160944787Y-117005608D01*
X161745395Y-116205000D01*
X162104605Y-116205000D01*
X162905213Y-117005608D01*
X163147397Y-116936143D01*
X163334144Y-116412698D01*
X163306362Y-115857632D01*
X163147397Y-115473857D01*
X162905213Y-115404392D01*
X162104605Y-116205000D01*
X161745395Y-116205000D01*
X160944787Y-115404392D01*
X160702603Y-115473857D01*
X160515856Y-115997302D01*
X113915000Y-115997302D01*
X113915000Y-89408005D01*
X113915001Y-89408000D01*
X113847634Y-89069326D01*
X113783975Y-88974054D01*
X113655790Y-88782210D01*
X113655787Y-88782208D01*
X113020790Y-88147210D01*
X112733675Y-87955367D01*
X112677484Y-87944190D01*
X112395000Y-87887999D01*
X112394995Y-87888000D01*
X84705000Y-87888000D01*
X84705000Y-84786857D01*
X84807828Y-84718149D01*
X85090000Y-84295850D01*
X85372172Y-84718149D01*
X85825391Y-85020981D01*
X86360000Y-85127321D01*
X86894609Y-85020981D01*
X87347828Y-84718149D01*
X87650660Y-84264930D01*
X87757000Y-83730321D01*
X87757000Y-82639679D01*
X90043000Y-82639679D01*
X90043000Y-83730321D01*
X90149340Y-84264930D01*
X90452172Y-84718149D01*
X90905391Y-85020981D01*
X91440000Y-85127321D01*
X91974609Y-85020981D01*
X92427828Y-84718149D01*
X92710000Y-84295850D01*
X92992172Y-84718149D01*
X93445391Y-85020981D01*
X93980000Y-85127321D01*
X94514609Y-85020981D01*
X94967828Y-84718149D01*
X95250000Y-84295850D01*
X95532172Y-84718149D01*
X95985391Y-85020981D01*
X96520000Y-85127321D01*
X97054609Y-85020981D01*
X97507828Y-84718149D01*
X97790000Y-84295850D01*
X98072172Y-84718149D01*
X98525391Y-85020981D01*
X99060000Y-85127321D01*
X99594609Y-85020981D01*
X100047828Y-84718149D01*
X100330000Y-84295850D01*
X100612172Y-84718149D01*
X101065391Y-85020981D01*
X101600000Y-85127321D01*
X102134609Y-85020981D01*
X102587828Y-84718149D01*
X102870000Y-84295850D01*
X103152172Y-84718149D01*
X103605391Y-85020981D01*
X104140000Y-85127321D01*
X104674609Y-85020981D01*
X105127828Y-84718149D01*
X105410000Y-84295850D01*
X105692172Y-84718149D01*
X106145391Y-85020981D01*
X106680000Y-85127321D01*
X107214609Y-85020981D01*
X107667828Y-84718149D01*
X107950000Y-84295850D01*
X108232172Y-84718149D01*
X108685391Y-85020981D01*
X109220000Y-85127321D01*
X109754609Y-85020981D01*
X110207828Y-84718149D01*
X110510660Y-84264930D01*
X110617000Y-83730321D01*
X110617000Y-82639679D01*
X111887000Y-82639679D01*
X111887000Y-83730321D01*
X111993340Y-84264930D01*
X112296172Y-84718149D01*
X112749391Y-85020981D01*
X113284000Y-85127321D01*
X113818609Y-85020981D01*
X114271828Y-84718149D01*
X114554000Y-84295850D01*
X114836172Y-84718149D01*
X115289391Y-85020981D01*
X115824000Y-85127321D01*
X116358609Y-85020981D01*
X116811828Y-84718149D01*
X117094000Y-84295850D01*
X117376172Y-84718149D01*
X117829391Y-85020981D01*
X118364000Y-85127321D01*
X118898609Y-85020981D01*
X119351828Y-84718149D01*
X119634000Y-84295850D01*
X119916172Y-84718149D01*
X120369391Y-85020981D01*
X120904000Y-85127321D01*
X121438609Y-85020981D01*
X121891828Y-84718149D01*
X122174000Y-84295850D01*
X122456172Y-84718149D01*
X122909391Y-85020981D01*
X123444000Y-85127321D01*
X123978609Y-85020981D01*
X124431828Y-84718149D01*
X124714000Y-84295850D01*
X124996172Y-84718149D01*
X125449391Y-85020981D01*
X125984000Y-85127321D01*
X126518609Y-85020981D01*
X126971828Y-84718149D01*
X127263330Y-84281887D01*
X127281941Y-84344941D01*
X127625974Y-84770630D01*
X128106723Y-85032260D01*
X128180930Y-85047220D01*
X128397000Y-84924720D01*
X128397000Y-83312000D01*
X128651000Y-83312000D01*
X128651000Y-84924720D01*
X128867070Y-85047220D01*
X128941277Y-85032260D01*
X129422026Y-84770630D01*
X129766059Y-84344941D01*
X129921000Y-83820000D01*
X129921000Y-83312000D01*
X128651000Y-83312000D01*
X128397000Y-83312000D01*
X128377000Y-83312000D01*
X128377000Y-83058000D01*
X128397000Y-83058000D01*
X128397000Y-81445280D01*
X128651000Y-81445280D01*
X128651000Y-83058000D01*
X129921000Y-83058000D01*
X129921000Y-82550000D01*
X129766059Y-82025059D01*
X129422026Y-81599370D01*
X128941277Y-81337740D01*
X128867070Y-81322780D01*
X128651000Y-81445280D01*
X128397000Y-81445280D01*
X128180930Y-81322780D01*
X128106723Y-81337740D01*
X127625974Y-81599370D01*
X127281941Y-82025059D01*
X127263330Y-82088113D01*
X126971828Y-81651851D01*
X126518609Y-81349019D01*
X125984000Y-81242679D01*
X125449391Y-81349019D01*
X124996172Y-81651851D01*
X124714000Y-82074150D01*
X124431828Y-81651851D01*
X123978609Y-81349019D01*
X123444000Y-81242679D01*
X122909391Y-81349019D01*
X122456172Y-81651851D01*
X122174000Y-82074150D01*
X121891828Y-81651851D01*
X121438609Y-81349019D01*
X120904000Y-81242679D01*
X120369391Y-81349019D01*
X119916172Y-81651851D01*
X119634000Y-82074150D01*
X119351828Y-81651851D01*
X118898609Y-81349019D01*
X118364000Y-81242679D01*
X117829391Y-81349019D01*
X117376172Y-81651851D01*
X117094000Y-82074150D01*
X116811828Y-81651851D01*
X116358609Y-81349019D01*
X115824000Y-81242679D01*
X115289391Y-81349019D01*
X114836172Y-81651851D01*
X114554000Y-82074150D01*
X114271828Y-81651851D01*
X113818609Y-81349019D01*
X113284000Y-81242679D01*
X112749391Y-81349019D01*
X112296172Y-81651851D01*
X111993340Y-82105070D01*
X111887000Y-82639679D01*
X110617000Y-82639679D01*
X110510660Y-82105070D01*
X110207828Y-81651851D01*
X109754609Y-81349019D01*
X109220000Y-81242679D01*
X108685391Y-81349019D01*
X108232172Y-81651851D01*
X107950000Y-82074150D01*
X107667828Y-81651851D01*
X107214609Y-81349019D01*
X106680000Y-81242679D01*
X106145391Y-81349019D01*
X105692172Y-81651851D01*
X105410000Y-82074150D01*
X105127828Y-81651851D01*
X104674609Y-81349019D01*
X104140000Y-81242679D01*
X103605391Y-81349019D01*
X103152172Y-81651851D01*
X102870000Y-82074150D01*
X102587828Y-81651851D01*
X102134609Y-81349019D01*
X101600000Y-81242679D01*
X101065391Y-81349019D01*
X100612172Y-81651851D01*
X100330000Y-82074150D01*
X100047828Y-81651851D01*
X99594609Y-81349019D01*
X99060000Y-81242679D01*
X98525391Y-81349019D01*
X98072172Y-81651851D01*
X97790000Y-82074150D01*
X97507828Y-81651851D01*
X97054609Y-81349019D01*
X96520000Y-81242679D01*
X95985391Y-81349019D01*
X95532172Y-81651851D01*
X95250000Y-82074150D01*
X94967828Y-81651851D01*
X94514609Y-81349019D01*
X93980000Y-81242679D01*
X93445391Y-81349019D01*
X92992172Y-81651851D01*
X92710000Y-82074150D01*
X92427828Y-81651851D01*
X91974609Y-81349019D01*
X91440000Y-81242679D01*
X90905391Y-81349019D01*
X90452172Y-81651851D01*
X90149340Y-82105070D01*
X90043000Y-82639679D01*
X87757000Y-82639679D01*
X87650660Y-82105070D01*
X87347828Y-81651851D01*
X86894609Y-81349019D01*
X86360000Y-81242679D01*
X85825391Y-81349019D01*
X85372172Y-81651851D01*
X85090000Y-82074150D01*
X84807828Y-81651851D01*
X84354609Y-81349019D01*
X83820000Y-81242679D01*
X83285391Y-81349019D01*
X82832172Y-81651851D01*
X82550000Y-82074150D01*
X82267828Y-81651851D01*
X81814609Y-81349019D01*
X81280000Y-81242679D01*
X80745391Y-81349019D01*
X80292172Y-81651851D01*
X80010000Y-82074150D01*
X79727828Y-81651851D01*
X79274609Y-81349019D01*
X78740000Y-81242679D01*
X78205391Y-81349019D01*
X77752172Y-81651851D01*
X77470000Y-82074150D01*
X77187828Y-81651851D01*
X76734609Y-81349019D01*
X76200000Y-81242679D01*
X75665391Y-81349019D01*
X75212172Y-81651851D01*
X74930000Y-82074150D01*
X74647828Y-81651851D01*
X74194609Y-81349019D01*
X73660000Y-81242679D01*
X73125391Y-81349019D01*
X72672172Y-81651851D01*
X72390000Y-82074150D01*
X72107828Y-81651851D01*
X71654609Y-81349019D01*
X71120000Y-81242679D01*
X70585391Y-81349019D01*
X70132172Y-81651851D01*
X69850000Y-82074150D01*
X69567828Y-81651851D01*
X69114609Y-81349019D01*
X68580000Y-81242679D01*
X68045391Y-81349019D01*
X67592172Y-81651851D01*
X67289340Y-82105070D01*
X67183000Y-82639679D01*
X62246235Y-82639679D01*
X62145010Y-82394697D01*
X61970000Y-82219381D01*
X61970000Y-79750000D01*
X160915000Y-79750000D01*
X160915000Y-107619304D01*
X160741371Y-107792630D01*
X160528243Y-108305900D01*
X160527758Y-108861661D01*
X160739990Y-109375303D01*
X161132630Y-109768629D01*
X161340512Y-109854949D01*
X161134697Y-109939990D01*
X160741371Y-110332630D01*
X160528243Y-110845900D01*
X160527758Y-111401661D01*
X160739990Y-111915303D01*
X161132630Y-112308629D01*
X161340512Y-112394949D01*
X161134697Y-112479990D01*
X160741371Y-112872630D01*
X160528243Y-113385900D01*
X160527758Y-113941661D01*
X160739990Y-114455303D01*
X161132630Y-114848629D01*
X161324727Y-114928395D01*
X161193857Y-114982603D01*
X161124392Y-115224787D01*
X161925000Y-116025395D01*
X162725608Y-115224787D01*
X162656143Y-114982603D01*
X162515682Y-114932491D01*
X162715303Y-114850010D01*
X163108629Y-114457370D01*
X163321757Y-113944100D01*
X163322242Y-113388339D01*
X163110010Y-112874697D01*
X162717370Y-112481371D01*
X162509488Y-112395051D01*
X162715303Y-112310010D01*
X163108629Y-111917370D01*
X163321757Y-111404100D01*
X163322242Y-110848339D01*
X163110010Y-110334697D01*
X162717370Y-109941371D01*
X162509488Y-109855051D01*
X162715303Y-109770010D01*
X163108629Y-109377370D01*
X163321757Y-108864100D01*
X163322242Y-108308339D01*
X163110010Y-107794697D01*
X162935000Y-107619381D01*
X162935000Y-82895213D01*
X168109392Y-82895213D01*
X168178857Y-83137397D01*
X168702302Y-83324144D01*
X169257368Y-83296362D01*
X169641143Y-83137397D01*
X169710608Y-82895213D01*
X168910000Y-82094605D01*
X168109392Y-82895213D01*
X162935000Y-82895213D01*
X162935000Y-81707302D01*
X167500856Y-81707302D01*
X167528638Y-82262368D01*
X167687603Y-82646143D01*
X167929787Y-82715608D01*
X168730395Y-81915000D01*
X167929787Y-81114392D01*
X167687603Y-81183857D01*
X167500856Y-81707302D01*
X162935000Y-81707302D01*
X162935000Y-80934787D01*
X168109392Y-80934787D01*
X168910000Y-81735395D01*
X169710608Y-80934787D01*
X169641143Y-80692603D01*
X169117698Y-80505856D01*
X168562632Y-80533638D01*
X168178857Y-80692603D01*
X168109392Y-80934787D01*
X162935000Y-80934787D01*
X162935000Y-79750000D01*
X170440000Y-79750000D01*
X170440000Y-80949304D01*
X170266371Y-81122630D01*
X170186605Y-81314727D01*
X170132397Y-81183857D01*
X169890213Y-81114392D01*
X169089605Y-81915000D01*
X169890213Y-82715608D01*
X170132397Y-82646143D01*
X170182509Y-82505682D01*
X170264990Y-82705303D01*
X170440000Y-82880619D01*
X170440000Y-91440000D01*
X170516882Y-91826510D01*
X170735822Y-92154178D01*
X174250000Y-95668356D01*
X174250000Y-99366106D01*
X174125845Y-99065628D01*
X173497679Y-98436364D01*
X172676519Y-98095389D01*
X171787381Y-98094613D01*
X170965628Y-98434155D01*
X170336364Y-99062321D01*
X169995389Y-99883481D01*
X169994613Y-100772619D01*
X170334155Y-101594372D01*
X170962321Y-102223636D01*
X171783481Y-102564611D01*
X172672619Y-102565387D01*
X173494372Y-102225845D01*
X174123636Y-101597679D01*
X174250000Y-101293360D01*
X174250000Y-101816644D01*
X173315822Y-102750822D01*
X173096882Y-103078490D01*
X173020000Y-103465000D01*
X173020000Y-106169314D01*
X172729449Y-106459357D01*
X172495267Y-107023330D01*
X172494735Y-107633991D01*
X172727932Y-108198371D01*
X173159357Y-108630551D01*
X173723330Y-108864733D01*
X174333991Y-108865265D01*
X174898371Y-108632068D01*
X175280288Y-108250818D01*
X175659357Y-108630551D01*
X176223330Y-108864733D01*
X176833991Y-108865265D01*
X177398371Y-108632068D01*
X177620668Y-108410159D01*
X178129446Y-108410159D01*
X178215852Y-108666643D01*
X178789336Y-108876458D01*
X179399460Y-108850839D01*
X179844148Y-108666643D01*
X179930554Y-108410159D01*
X179030000Y-107509605D01*
X178129446Y-108410159D01*
X177620668Y-108410159D01*
X177830551Y-108200643D01*
X177834294Y-108191628D01*
X177949841Y-108230554D01*
X178850395Y-107330000D01*
X179209605Y-107330000D01*
X180110159Y-108230554D01*
X180366643Y-108144148D01*
X180576458Y-107570664D01*
X180550839Y-106960540D01*
X180366643Y-106515852D01*
X180110159Y-106429446D01*
X179209605Y-107330000D01*
X178850395Y-107330000D01*
X177949841Y-106429446D01*
X177834786Y-106468207D01*
X177832068Y-106461629D01*
X177620650Y-106249841D01*
X178129446Y-106249841D01*
X179030000Y-107150395D01*
X179930554Y-106249841D01*
X179844148Y-105993357D01*
X179270664Y-105783542D01*
X178660540Y-105809161D01*
X178215852Y-105993357D01*
X178129446Y-106249841D01*
X177620650Y-106249841D01*
X177540000Y-106169050D01*
X177540000Y-104558356D01*
X178218356Y-103880000D01*
X181610000Y-103880000D01*
X181996510Y-103803118D01*
X182324178Y-103584178D01*
X182543118Y-103256510D01*
X182620000Y-102870000D01*
X182620000Y-45085000D01*
X182543118Y-44698490D01*
X182324178Y-44370822D01*
X181054178Y-43100822D01*
X180726510Y-42881882D01*
X180340000Y-42805000D01*
X100070000Y-42805000D01*
X100070000Y-36424966D01*
X100330000Y-36035850D01*
X100612172Y-36458149D01*
X101065391Y-36760981D01*
X101600000Y-36867321D01*
X102134609Y-36760981D01*
X102587828Y-36458149D01*
X102870000Y-36035850D01*
X103152172Y-36458149D01*
X103605391Y-36760981D01*
X104140000Y-36867321D01*
X104674609Y-36760981D01*
X105127828Y-36458149D01*
X105430660Y-36004930D01*
X105537000Y-35470321D01*
X105537000Y-34379679D01*
X105430660Y-33845070D01*
X105127828Y-33391851D01*
X104674609Y-33089019D01*
X104140000Y-32982679D01*
X103605391Y-33089019D01*
X103152172Y-33391851D01*
X102870000Y-33814150D01*
X102587828Y-33391851D01*
X102134609Y-33089019D01*
X101600000Y-32982679D01*
X101065391Y-33089019D01*
X100612172Y-33391851D01*
X100330000Y-33814150D01*
X100047828Y-33391851D01*
X99594609Y-33089019D01*
X99060000Y-32982679D01*
X98525391Y-33089019D01*
X98072172Y-33391851D01*
X97790000Y-33814150D01*
X97507828Y-33391851D01*
X97054609Y-33089019D01*
X96520000Y-32982679D01*
X95985391Y-33089019D01*
X95532172Y-33391851D01*
X95250000Y-33814150D01*
X94967828Y-33391851D01*
X94514609Y-33089019D01*
X93980000Y-32982679D01*
X93445391Y-33089019D01*
X92992172Y-33391851D01*
X92689340Y-33845070D01*
X92583000Y-34379679D01*
X92583000Y-35470321D01*
X92689340Y-36004930D01*
X92992172Y-36458149D01*
X93445391Y-36760981D01*
X93980000Y-36867321D01*
X94514609Y-36760981D01*
X94967828Y-36458149D01*
X95250000Y-36035850D01*
X95532172Y-36458149D01*
X95985391Y-36760981D01*
X96520000Y-36867321D01*
X97054609Y-36760981D01*
X97507828Y-36458149D01*
X97790000Y-36035850D01*
X98050000Y-36424966D01*
X98050000Y-43815000D01*
X98126882Y-44201510D01*
X98345822Y-44529178D01*
X98673490Y-44748118D01*
X99060000Y-44825000D01*
X179921644Y-44825000D01*
X180600000Y-45503356D01*
X180600000Y-101860000D01*
X177800000Y-101860000D01*
X177413490Y-101936882D01*
X177085822Y-102155822D01*
X175815822Y-103425822D01*
X175596882Y-103753490D01*
X175520000Y-104140000D01*
X175520000Y-106169314D01*
X175279712Y-106409182D01*
X175040000Y-106169050D01*
X175040000Y-103883356D01*
X175974178Y-102949178D01*
X176193118Y-102621510D01*
X176270000Y-102235000D01*
X176270000Y-95250000D01*
X176193118Y-94863490D01*
X175974178Y-94535822D01*
X172460000Y-91021644D01*
X172460000Y-82880696D01*
X172633629Y-82707370D01*
X172719949Y-82499488D01*
X172804990Y-82705303D01*
X173197630Y-83098629D01*
X173710900Y-83311757D01*
X174266661Y-83312242D01*
X174780303Y-83100010D01*
X175173629Y-82707370D01*
X175259949Y-82499488D01*
X175344990Y-82705303D01*
X175737630Y-83098629D01*
X176250900Y-83311757D01*
X176806661Y-83312242D01*
X177320303Y-83100010D01*
X177713629Y-82707370D01*
X177799949Y-82499488D01*
X177884990Y-82705303D01*
X178277630Y-83098629D01*
X178790900Y-83311757D01*
X179346661Y-83312242D01*
X179860303Y-83100010D01*
X180253629Y-82707370D01*
X180466757Y-82194100D01*
X180467242Y-81638339D01*
X180255010Y-81124697D01*
X180080000Y-80949381D01*
X180080000Y-74295000D01*
X180003118Y-73908490D01*
X179784178Y-73580822D01*
X175339178Y-69135822D01*
X175011510Y-68916882D01*
X174625000Y-68840000D01*
X107733356Y-68840000D01*
X95685017Y-56791661D01*
X169417758Y-56791661D01*
X169629990Y-57305303D01*
X170022630Y-57698629D01*
X170535900Y-57911757D01*
X171091661Y-57912242D01*
X171605303Y-57700010D01*
X171810457Y-57495213D01*
X172554392Y-57495213D01*
X172623857Y-57737397D01*
X173147302Y-57924144D01*
X173702368Y-57896362D01*
X174086143Y-57737397D01*
X174155608Y-57495213D01*
X173355000Y-56694605D01*
X172554392Y-57495213D01*
X171810457Y-57495213D01*
X171998629Y-57307370D01*
X172078395Y-57115273D01*
X172132603Y-57246143D01*
X172374787Y-57315608D01*
X173175395Y-56515000D01*
X173534605Y-56515000D01*
X174335213Y-57315608D01*
X174577397Y-57246143D01*
X174627509Y-57105682D01*
X174709990Y-57305303D01*
X175102630Y-57698629D01*
X175615900Y-57911757D01*
X176171661Y-57912242D01*
X176685303Y-57700010D01*
X177078629Y-57307370D01*
X177164949Y-57099488D01*
X177249990Y-57305303D01*
X177642630Y-57698629D01*
X178155900Y-57911757D01*
X178711661Y-57912242D01*
X179225303Y-57700010D01*
X179618629Y-57307370D01*
X179831757Y-56794100D01*
X179832242Y-56238339D01*
X179620010Y-55724697D01*
X179227370Y-55331371D01*
X178714100Y-55118243D01*
X178158339Y-55117758D01*
X177644697Y-55329990D01*
X177251371Y-55722630D01*
X177165051Y-55930512D01*
X177080010Y-55724697D01*
X176687370Y-55331371D01*
X176174100Y-55118243D01*
X175618339Y-55117758D01*
X175104697Y-55329990D01*
X174711371Y-55722630D01*
X174631605Y-55914727D01*
X174577397Y-55783857D01*
X174335213Y-55714392D01*
X173534605Y-56515000D01*
X173175395Y-56515000D01*
X172374787Y-55714392D01*
X172132603Y-55783857D01*
X172082491Y-55924318D01*
X172000010Y-55724697D01*
X171810432Y-55534787D01*
X172554392Y-55534787D01*
X173355000Y-56335395D01*
X174155608Y-55534787D01*
X174086143Y-55292603D01*
X173562698Y-55105856D01*
X173007632Y-55133638D01*
X172623857Y-55292603D01*
X172554392Y-55534787D01*
X171810432Y-55534787D01*
X171607370Y-55331371D01*
X171094100Y-55118243D01*
X170538339Y-55117758D01*
X170024697Y-55329990D01*
X169631371Y-55722630D01*
X169418243Y-56235900D01*
X169417758Y-56791661D01*
X95685017Y-56791661D01*
X77210000Y-38316644D01*
X77210000Y-36424966D01*
X77470000Y-36035850D01*
X77752172Y-36458149D01*
X78205391Y-36760981D01*
X78740000Y-36867321D01*
X79274609Y-36760981D01*
X79727828Y-36458149D01*
X80010000Y-36035850D01*
X80292172Y-36458149D01*
X80745391Y-36760981D01*
X81280000Y-36867321D01*
X81814609Y-36760981D01*
X82267828Y-36458149D01*
X82570660Y-36004930D01*
X82677000Y-35470321D01*
X82677000Y-34379679D01*
X82570660Y-33845070D01*
X82267828Y-33391851D01*
X81814609Y-33089019D01*
X81280000Y-32982679D01*
X80745391Y-33089019D01*
X80292172Y-33391851D01*
X80010000Y-33814150D01*
X79727828Y-33391851D01*
X79274609Y-33089019D01*
X78740000Y-32982679D01*
X78205391Y-33089019D01*
X77752172Y-33391851D01*
X77470000Y-33814150D01*
X77187828Y-33391851D01*
X76734609Y-33089019D01*
X76200000Y-32982679D01*
X75665391Y-33089019D01*
X75212172Y-33391851D01*
X74930000Y-33814150D01*
X74647828Y-33391851D01*
X74194609Y-33089019D01*
X73660000Y-32982679D01*
X73125391Y-33089019D01*
X72672172Y-33391851D01*
X72390000Y-33814150D01*
X72107828Y-33391851D01*
X71654609Y-33089019D01*
X71120000Y-32982679D01*
X70585391Y-33089019D01*
X70132172Y-33391851D01*
X69850000Y-33814150D01*
X69567828Y-33391851D01*
X69114609Y-33089019D01*
X68580000Y-32982679D01*
X68045391Y-33089019D01*
X67592172Y-33391851D01*
X67289340Y-33845070D01*
X67183000Y-34379679D01*
X67183000Y-35274644D01*
X64788354Y-32879998D01*
X108085000Y-32879998D01*
X108085000Y-33612109D01*
X107929340Y-33845070D01*
X107823000Y-34379679D01*
X107823000Y-35470321D01*
X107929340Y-36004930D01*
X108232172Y-36458149D01*
X108685391Y-36760981D01*
X109220000Y-36867321D01*
X109754609Y-36760981D01*
X110207828Y-36458149D01*
X110499330Y-36021887D01*
X110517941Y-36084941D01*
X110861974Y-36510630D01*
X111342723Y-36772260D01*
X111416930Y-36787220D01*
X111633000Y-36664720D01*
X111633000Y-35052000D01*
X111887000Y-35052000D01*
X111887000Y-36664720D01*
X112103070Y-36787220D01*
X112177277Y-36772260D01*
X112658026Y-36510630D01*
X113002059Y-36084941D01*
X113030000Y-35990277D01*
X113057941Y-36084941D01*
X113401974Y-36510630D01*
X113882723Y-36772260D01*
X113956930Y-36787220D01*
X114173000Y-36664720D01*
X114173000Y-35052000D01*
X111887000Y-35052000D01*
X111633000Y-35052000D01*
X111613000Y-35052000D01*
X111613000Y-34798000D01*
X111633000Y-34798000D01*
X111633000Y-33185280D01*
X111887000Y-33185280D01*
X111887000Y-34798000D01*
X114173000Y-34798000D01*
X114173000Y-33185280D01*
X114427000Y-33185280D01*
X114427000Y-34798000D01*
X114447000Y-34798000D01*
X114447000Y-35052000D01*
X114427000Y-35052000D01*
X114427000Y-36664720D01*
X114643070Y-36787220D01*
X114717277Y-36772260D01*
X115198026Y-36510630D01*
X115542059Y-36084941D01*
X115560670Y-36021887D01*
X115852172Y-36458149D01*
X116305391Y-36760981D01*
X116840000Y-36867321D01*
X117374609Y-36760981D01*
X117827828Y-36458149D01*
X118110000Y-36035850D01*
X118392172Y-36458149D01*
X118845391Y-36760981D01*
X119380000Y-36867321D01*
X119914609Y-36760981D01*
X120367828Y-36458149D01*
X120650000Y-36035850D01*
X120932172Y-36458149D01*
X121385391Y-36760981D01*
X121920000Y-36867321D01*
X122454609Y-36760981D01*
X122907828Y-36458149D01*
X123190000Y-36035850D01*
X123472172Y-36458149D01*
X123925391Y-36760981D01*
X124460000Y-36867321D01*
X124994609Y-36760981D01*
X125447828Y-36458149D01*
X125730000Y-36035850D01*
X126012172Y-36458149D01*
X126465391Y-36760981D01*
X127000000Y-36867321D01*
X127534609Y-36760981D01*
X127987828Y-36458149D01*
X128290660Y-36004930D01*
X128397000Y-35470321D01*
X128397000Y-34379679D01*
X128290660Y-33845070D01*
X127987828Y-33391851D01*
X127534609Y-33089019D01*
X127000000Y-32982679D01*
X126465391Y-33089019D01*
X126012172Y-33391851D01*
X125730000Y-33814150D01*
X125447828Y-33391851D01*
X124994609Y-33089019D01*
X124460000Y-32982679D01*
X123925391Y-33089019D01*
X123472172Y-33391851D01*
X123190000Y-33814150D01*
X122907828Y-33391851D01*
X122454609Y-33089019D01*
X121920000Y-32982679D01*
X121385391Y-33089019D01*
X120932172Y-33391851D01*
X120650000Y-33814150D01*
X120367828Y-33391851D01*
X119914609Y-33089019D01*
X119380000Y-32982679D01*
X118845391Y-33089019D01*
X118392172Y-33391851D01*
X118110000Y-33814150D01*
X117850000Y-33425034D01*
X117850000Y-32760000D01*
X160236644Y-32760000D01*
X164385822Y-36909178D01*
X164713490Y-37128118D01*
X165100000Y-37205000D01*
X169849304Y-37205000D01*
X170022630Y-37378629D01*
X170535900Y-37591757D01*
X171091661Y-37592242D01*
X171605303Y-37380010D01*
X171810457Y-37175213D01*
X172554392Y-37175213D01*
X172623857Y-37417397D01*
X173147302Y-37604144D01*
X173702368Y-37576362D01*
X174086143Y-37417397D01*
X174155608Y-37175213D01*
X173355000Y-36374605D01*
X172554392Y-37175213D01*
X171810457Y-37175213D01*
X171998629Y-36987370D01*
X172078395Y-36795273D01*
X172132603Y-36926143D01*
X172374787Y-36995608D01*
X173175395Y-36195000D01*
X173534605Y-36195000D01*
X174335213Y-36995608D01*
X174577397Y-36926143D01*
X174627509Y-36785682D01*
X174709990Y-36985303D01*
X175102630Y-37378629D01*
X175615900Y-37591757D01*
X176171661Y-37592242D01*
X176685303Y-37380010D01*
X177078629Y-36987370D01*
X177164949Y-36779488D01*
X177249990Y-36985303D01*
X177642630Y-37378629D01*
X178155900Y-37591757D01*
X178711661Y-37592242D01*
X179225303Y-37380010D01*
X179618629Y-36987370D01*
X179831757Y-36474100D01*
X179832242Y-35918339D01*
X179620010Y-35404697D01*
X179227370Y-35011371D01*
X178714100Y-34798243D01*
X178158339Y-34797758D01*
X177644697Y-35009990D01*
X177251371Y-35402630D01*
X177165051Y-35610512D01*
X177080010Y-35404697D01*
X176687370Y-35011371D01*
X176174100Y-34798243D01*
X175618339Y-34797758D01*
X175104697Y-35009990D01*
X174711371Y-35402630D01*
X174631605Y-35594727D01*
X174577397Y-35463857D01*
X174335213Y-35394392D01*
X173534605Y-36195000D01*
X173175395Y-36195000D01*
X172374787Y-35394392D01*
X172132603Y-35463857D01*
X172082491Y-35604318D01*
X172000010Y-35404697D01*
X171810432Y-35214787D01*
X172554392Y-35214787D01*
X173355000Y-36015395D01*
X174155608Y-35214787D01*
X174086143Y-34972603D01*
X173562698Y-34785856D01*
X173007632Y-34813638D01*
X172623857Y-34972603D01*
X172554392Y-35214787D01*
X171810432Y-35214787D01*
X171607370Y-35011371D01*
X171094100Y-34798243D01*
X170538339Y-34797758D01*
X170024697Y-35009990D01*
X169849381Y-35185000D01*
X165518356Y-35185000D01*
X161369178Y-31035822D01*
X161041510Y-30816882D01*
X160655000Y-30740000D01*
X116840000Y-30740000D01*
X116453490Y-30816882D01*
X116125822Y-31035822D01*
X115906882Y-31363490D01*
X115830000Y-31750000D01*
X115830000Y-33425034D01*
X115560670Y-33828113D01*
X115542059Y-33765059D01*
X115198026Y-33339370D01*
X114717277Y-33077740D01*
X114643070Y-33062780D01*
X114427000Y-33185280D01*
X114173000Y-33185280D01*
X113956930Y-33062780D01*
X113882723Y-33077740D01*
X113401974Y-33339370D01*
X113057941Y-33765059D01*
X113030000Y-33859723D01*
X113002059Y-33765059D01*
X112658026Y-33339370D01*
X112177277Y-33077740D01*
X112103070Y-33062780D01*
X111887000Y-33185280D01*
X111633000Y-33185280D01*
X111416930Y-33062780D01*
X111342723Y-33077740D01*
X110861974Y-33339370D01*
X110517941Y-33765059D01*
X110499330Y-33828113D01*
X110355000Y-33612109D01*
X110355000Y-31750000D01*
X110268603Y-31315654D01*
X110022566Y-30947434D01*
X110017564Y-30942432D01*
X109714603Y-30740000D01*
X109649344Y-30696395D01*
X109214998Y-30609998D01*
X35565002Y-30609998D01*
X35130656Y-30696395D01*
X34762436Y-30942432D01*
X32217434Y-33487434D01*
X31971397Y-33855654D01*
X31885000Y-34290000D01*
X24180000Y-34290000D01*
X24180000Y-31817467D01*
X24333602Y-31045259D01*
X24732807Y-30447807D01*
X25330257Y-30048602D01*
X26102467Y-29895000D01*
X190432533Y-29895000D01*
X191204741Y-30048602D01*
X191204741Y-30048602D01*
G37*
X191204741Y-30048602D02*
X191802193Y-30447807D01*
X192201398Y-31045257D01*
X192355000Y-31817467D01*
X192355000Y-126932533D01*
X192201398Y-127704743D01*
X191802193Y-128302193D01*
X191204741Y-128701398D01*
X190432533Y-128855000D01*
X26102467Y-128855000D01*
X25330257Y-128701398D01*
X24732807Y-128302193D01*
X24333602Y-127704741D01*
X24180000Y-126932533D01*
X24180000Y-34290000D01*
X31885000Y-34290000D01*
X31885000Y-60325000D01*
X31971397Y-60759346D01*
X32050533Y-60877781D01*
X32217434Y-61127566D01*
X42045000Y-70955132D01*
X42045000Y-113030000D01*
X42131397Y-113464346D01*
X42355674Y-113800000D01*
X42377434Y-113832566D01*
X44282434Y-115737566D01*
X44650654Y-115983603D01*
X45085000Y-116070000D01*
X62394868Y-116070000D01*
X72222434Y-125897566D01*
X72590654Y-126143603D01*
X73025000Y-126230000D01*
X85725000Y-126230000D01*
X86159346Y-126143603D01*
X86527566Y-125897566D01*
X86773603Y-125529346D01*
X86860000Y-125095000D01*
X86860000Y-121206026D01*
X86912781Y-121170759D01*
X87267094Y-120640492D01*
X87334672Y-120300750D01*
X91075000Y-120300750D01*
X91075000Y-121441310D01*
X91171673Y-121674699D01*
X91350302Y-121853327D01*
X91583691Y-121950000D01*
X92424250Y-121950000D01*
X92583000Y-121791250D01*
X92583000Y-120142000D01*
X91233750Y-120142000D01*
X91075000Y-120300750D01*
X87334672Y-120300750D01*
X87391512Y-120015000D01*
X87267094Y-119389508D01*
X86912781Y-118859241D01*
X86507873Y-118588690D01*
X91075000Y-118588690D01*
X91075000Y-119729250D01*
X91233750Y-119888000D01*
X92583000Y-119888000D01*
X92583000Y-118238750D01*
X92424250Y-118080000D01*
X91583691Y-118080000D01*
X91350302Y-118176673D01*
X91171673Y-118355301D01*
X91075000Y-118588690D01*
X86507873Y-118588690D01*
X86382514Y-118504928D01*
X85757022Y-118380510D01*
X85692978Y-118380510D01*
X85067486Y-118504928D01*
X84748582Y-118718013D01*
X84722817Y-118655811D01*
X84544188Y-118477183D01*
X84310799Y-118380510D01*
X83470750Y-118380510D01*
X83312000Y-118539260D01*
X83312000Y-119888000D01*
X83332000Y-119888000D01*
X83332000Y-120142000D01*
X83312000Y-120142000D01*
X83312000Y-121490740D01*
X83470750Y-121649490D01*
X84310799Y-121649490D01*
X84544188Y-121552817D01*
X84590000Y-121507005D01*
X84590000Y-123960000D01*
X73495132Y-123960000D01*
X69835882Y-120300750D01*
X81550510Y-120300750D01*
X81550510Y-121140800D01*
X81647183Y-121374189D01*
X81825812Y-121552817D01*
X82059201Y-121649490D01*
X82899250Y-121649490D01*
X83058000Y-121490740D01*
X83058000Y-120142000D01*
X81709260Y-120142000D01*
X81550510Y-120300750D01*
X69835882Y-120300750D01*
X68424332Y-118889200D01*
X81550510Y-118889200D01*
X81550510Y-119729250D01*
X81709260Y-119888000D01*
X83058000Y-119888000D01*
X83058000Y-118539260D01*
X82899250Y-118380510D01*
X82059201Y-118380510D01*
X81825812Y-118477183D01*
X81647183Y-118655811D01*
X81550510Y-118889200D01*
X68424332Y-118889200D01*
X63667566Y-114132434D01*
X63587002Y-114078603D01*
X63299346Y-113886397D01*
X62865000Y-113800000D01*
X45555132Y-113800000D01*
X44315000Y-112559868D01*
X44315000Y-109565213D01*
X47459392Y-109565213D01*
X47528857Y-109807397D01*
X48052302Y-109994144D01*
X48607368Y-109966362D01*
X48991143Y-109807397D01*
X49060608Y-109565213D01*
X48260000Y-108764605D01*
X47459392Y-109565213D01*
X44315000Y-109565213D01*
X44315000Y-108377302D01*
X46850856Y-108377302D01*
X46878638Y-108932368D01*
X47037603Y-109316143D01*
X47279787Y-109385608D01*
X48080395Y-108585000D01*
X48439605Y-108585000D01*
X49240213Y-109385608D01*
X49482397Y-109316143D01*
X49669144Y-108792698D01*
X49641362Y-108237632D01*
X49482397Y-107853857D01*
X49240213Y-107784392D01*
X48439605Y-108585000D01*
X48080395Y-108585000D01*
X47279787Y-107784392D01*
X47037603Y-107853857D01*
X46850856Y-108377302D01*
X44315000Y-108377302D01*
X44315000Y-70485000D01*
X44228603Y-70050654D01*
X43982566Y-69682434D01*
X34155000Y-59854868D01*
X34155000Y-48890634D01*
X34210822Y-48974178D01*
X36115822Y-50879178D01*
X36443490Y-51098118D01*
X36830000Y-51175000D01*
X38095452Y-51175000D01*
X38214241Y-51352781D01*
X38337290Y-51435000D01*
X38214241Y-51517219D01*
X37859928Y-52047486D01*
X37735510Y-52672978D01*
X37735510Y-52737022D01*
X37859928Y-53362514D01*
X38214241Y-53892781D01*
X38337290Y-53975000D01*
X38214241Y-54057219D01*
X37859928Y-54587486D01*
X37735510Y-55212978D01*
X37735510Y-55277022D01*
X37859928Y-55902514D01*
X38214241Y-56432781D01*
X38337290Y-56515000D01*
X38214241Y-56597219D01*
X37859928Y-57127486D01*
X37735510Y-57752978D01*
X37735510Y-57817022D01*
X37859928Y-58442514D01*
X38214241Y-58972781D01*
X38744508Y-59327094D01*
X39370000Y-59451512D01*
X39995492Y-59327094D01*
X40525759Y-58972781D01*
X40880072Y-58442514D01*
X41004490Y-57817022D01*
X41004490Y-57752978D01*
X40880072Y-57127486D01*
X40525759Y-56597219D01*
X40402710Y-56515000D01*
X40525759Y-56432781D01*
X40880072Y-55902514D01*
X41004490Y-55277022D01*
X41004490Y-55212978D01*
X40880072Y-54587486D01*
X40525759Y-54057219D01*
X40402710Y-53975000D01*
X40525759Y-53892781D01*
X40880072Y-53362514D01*
X41004490Y-52737022D01*
X41004490Y-52672978D01*
X40880072Y-52047486D01*
X40525759Y-51517219D01*
X40402710Y-51435000D01*
X40525759Y-51352781D01*
X40880072Y-50822514D01*
X41004490Y-50197022D01*
X41004490Y-50132978D01*
X40880072Y-49507486D01*
X40525759Y-48977219D01*
X40402710Y-48895000D01*
X40525759Y-48812781D01*
X40880072Y-48282514D01*
X41004490Y-47657022D01*
X41004490Y-47592978D01*
X40880072Y-46967486D01*
X40525759Y-46437219D01*
X40402710Y-46355000D01*
X40525759Y-46272781D01*
X40880072Y-45742514D01*
X41004490Y-45117022D01*
X41004490Y-45052978D01*
X40880072Y-44427486D01*
X40525759Y-43897219D01*
X40402710Y-43815000D01*
X40525759Y-43732781D01*
X40880072Y-43202514D01*
X41004490Y-42577022D01*
X41004490Y-42512978D01*
X40880072Y-41887486D01*
X40666987Y-41568582D01*
X40729189Y-41542817D01*
X40907817Y-41364188D01*
X41004490Y-41130799D01*
X41004490Y-40290750D01*
X40845740Y-40132000D01*
X39497000Y-40132000D01*
X39497000Y-40152000D01*
X39243000Y-40152000D01*
X39243000Y-40132000D01*
X39223000Y-40132000D01*
X39223000Y-39878000D01*
X39243000Y-39878000D01*
X39243000Y-38529260D01*
X39497000Y-38529260D01*
X39497000Y-39878000D01*
X40845740Y-39878000D01*
X40926438Y-39797302D01*
X57010856Y-39797302D01*
X57038638Y-40352368D01*
X57197603Y-40736143D01*
X57439787Y-40805608D01*
X58240395Y-40005000D01*
X58599605Y-40005000D01*
X59400213Y-40805608D01*
X59642397Y-40736143D01*
X59686453Y-40612656D01*
X59737603Y-40736143D01*
X59979787Y-40805608D01*
X60780395Y-40005000D01*
X61139605Y-40005000D01*
X61940213Y-40805608D01*
X62182397Y-40736143D01*
X62369144Y-40212698D01*
X62341362Y-39657632D01*
X62182397Y-39273857D01*
X61940213Y-39204392D01*
X61139605Y-40005000D01*
X60780395Y-40005000D01*
X59979787Y-39204392D01*
X59737603Y-39273857D01*
X59693547Y-39397344D01*
X59642397Y-39273857D01*
X59400213Y-39204392D01*
X58599605Y-40005000D01*
X58240395Y-40005000D01*
X57439787Y-39204392D01*
X57197603Y-39273857D01*
X57010856Y-39797302D01*
X40926438Y-39797302D01*
X41004490Y-39719250D01*
X41004490Y-39024787D01*
X57619392Y-39024787D01*
X58420000Y-39825395D01*
X59220608Y-39024787D01*
X60159392Y-39024787D01*
X60960000Y-39825395D01*
X61760608Y-39024787D01*
X61691143Y-38782603D01*
X61167698Y-38595856D01*
X60612632Y-38623638D01*
X60228857Y-38782603D01*
X60159392Y-39024787D01*
X59220608Y-39024787D01*
X59151143Y-38782603D01*
X58627698Y-38595856D01*
X58072632Y-38623638D01*
X57688857Y-38782603D01*
X57619392Y-39024787D01*
X41004490Y-39024787D01*
X41004490Y-38879201D01*
X40907817Y-38645812D01*
X40729189Y-38467183D01*
X40495800Y-38370510D01*
X39655750Y-38370510D01*
X39497000Y-38529260D01*
X39243000Y-38529260D01*
X39084250Y-38370510D01*
X38244200Y-38370510D01*
X38010811Y-38467183D01*
X37840000Y-38637995D01*
X37840000Y-35978356D01*
X37883356Y-35935000D01*
X63081644Y-35935000D01*
X64395000Y-37248356D01*
X64395000Y-51016644D01*
X63716644Y-51695000D01*
X61925696Y-51695000D01*
X61752370Y-51521371D01*
X61544488Y-51435051D01*
X61750303Y-51350010D01*
X62143629Y-50957370D01*
X62356757Y-50444100D01*
X62357242Y-49888339D01*
X62145010Y-49374697D01*
X61752370Y-48981371D01*
X61239100Y-48768243D01*
X60683339Y-48767758D01*
X60169697Y-48979990D01*
X59776371Y-49372630D01*
X59690051Y-49580512D01*
X59605010Y-49374697D01*
X59212370Y-48981371D01*
X58699100Y-48768243D01*
X58143339Y-48767758D01*
X57629697Y-48979990D01*
X57236371Y-49372630D01*
X57023243Y-49885900D01*
X57022758Y-50441661D01*
X57234990Y-50955303D01*
X57627630Y-51348629D01*
X57835512Y-51434949D01*
X57629697Y-51519990D01*
X57454381Y-51695000D01*
X56515000Y-51695000D01*
X56128490Y-51771882D01*
X55800822Y-51990822D01*
X55581882Y-52318490D01*
X55505000Y-52705000D01*
X55505000Y-57785000D01*
X55581882Y-58171510D01*
X55800822Y-58499178D01*
X56128490Y-58718118D01*
X56515000Y-58795000D01*
X62230000Y-58795000D01*
X62616510Y-58718118D01*
X62944178Y-58499178D01*
X68024178Y-53419178D01*
X68243118Y-53091510D01*
X68320000Y-52705000D01*
X68320000Y-36830000D01*
X68317018Y-36815011D01*
X68580000Y-36867321D01*
X69114609Y-36760981D01*
X69567828Y-36458149D01*
X69850000Y-36035850D01*
X70110000Y-36424966D01*
X70110000Y-41275000D01*
X70186882Y-41661510D01*
X70405822Y-41989178D01*
X104695822Y-76279178D01*
X105023490Y-76498118D01*
X105410000Y-76575000D01*
X172936644Y-76575000D01*
X172980000Y-76618356D01*
X172980000Y-80949304D01*
X172806371Y-81122630D01*
X172720051Y-81330512D01*
X172635010Y-81124697D01*
X172460000Y-80949381D01*
X172460000Y-78740000D01*
X172383118Y-78353490D01*
X172164178Y-78025822D01*
X171836510Y-77806882D01*
X171450000Y-77730000D01*
X60960000Y-77730000D01*
X60573490Y-77806882D01*
X60245822Y-78025822D01*
X60026882Y-78353490D01*
X59950000Y-78740000D01*
X59950000Y-82175000D01*
X59385696Y-82175000D01*
X59212370Y-82001371D01*
X58699100Y-81788243D01*
X58143339Y-81787758D01*
X57629697Y-81999990D01*
X57236371Y-82392630D01*
X57023243Y-82905900D01*
X57022758Y-83461661D01*
X57234990Y-83975303D01*
X57410000Y-84150619D01*
X57410000Y-104356644D01*
X56731644Y-105035000D01*
X49225696Y-105035000D01*
X49052370Y-104861371D01*
X48844488Y-104775051D01*
X49050303Y-104690010D01*
X49225619Y-104515000D01*
X53975000Y-104515000D01*
X54361510Y-104438118D01*
X54689178Y-104219178D01*
X54908118Y-103891510D01*
X54985000Y-103505000D01*
X54985000Y-68221661D01*
X59562758Y-68221661D01*
X59774990Y-68735303D01*
X60167630Y-69128629D01*
X60375512Y-69214949D01*
X60169697Y-69299990D01*
X59776371Y-69692630D01*
X59563243Y-70205900D01*
X59562758Y-70761661D01*
X59774990Y-71275303D01*
X60167630Y-71668629D01*
X60680900Y-71881757D01*
X61236661Y-71882242D01*
X61750303Y-71670010D01*
X62102827Y-71318101D01*
X62102758Y-71396661D01*
X62314990Y-71910303D01*
X62707630Y-72303629D01*
X63220900Y-72516757D01*
X63776661Y-72517242D01*
X64290303Y-72305010D01*
X64495457Y-72100213D01*
X65239392Y-72100213D01*
X65308857Y-72342397D01*
X65832302Y-72529144D01*
X66387368Y-72501362D01*
X66771143Y-72342397D01*
X66840608Y-72100213D01*
X66040000Y-71299605D01*
X65239392Y-72100213D01*
X64495457Y-72100213D01*
X64683629Y-71912370D01*
X64763395Y-71720273D01*
X64817603Y-71851143D01*
X65059787Y-71920608D01*
X65860395Y-71120000D01*
X66219605Y-71120000D01*
X67020213Y-71920608D01*
X67262397Y-71851143D01*
X67312509Y-71710682D01*
X67394990Y-71910303D01*
X67787630Y-72303629D01*
X68300900Y-72516757D01*
X68856661Y-72517242D01*
X69370303Y-72305010D01*
X69763629Y-71912370D01*
X69849949Y-71704488D01*
X69934990Y-71910303D01*
X70327630Y-72303629D01*
X70840900Y-72516757D01*
X71396661Y-72517242D01*
X71910303Y-72305010D01*
X72303629Y-71912370D01*
X72516757Y-71399100D01*
X72517242Y-70843339D01*
X72305010Y-70329697D01*
X71912370Y-69936371D01*
X71399100Y-69723243D01*
X70843339Y-69722758D01*
X70329697Y-69934990D01*
X69936371Y-70327630D01*
X69850051Y-70535512D01*
X69765010Y-70329697D01*
X69372370Y-69936371D01*
X68859100Y-69723243D01*
X68303339Y-69722758D01*
X67789697Y-69934990D01*
X67396371Y-70327630D01*
X67316605Y-70519727D01*
X67262397Y-70388857D01*
X67020213Y-70319392D01*
X66219605Y-71120000D01*
X65860395Y-71120000D01*
X65059787Y-70319392D01*
X64817603Y-70388857D01*
X64767491Y-70529318D01*
X64685010Y-70329697D01*
X64495432Y-70139787D01*
X65239392Y-70139787D01*
X66040000Y-70940395D01*
X66840608Y-70139787D01*
X66771143Y-69897603D01*
X66247698Y-69710856D01*
X65692632Y-69738638D01*
X65308857Y-69897603D01*
X65239392Y-70139787D01*
X64495432Y-70139787D01*
X64292370Y-69936371D01*
X63779100Y-69723243D01*
X63223339Y-69722758D01*
X62709697Y-69934990D01*
X62357173Y-70286899D01*
X62357242Y-70208339D01*
X62145010Y-69694697D01*
X61752370Y-69301371D01*
X61544488Y-69215051D01*
X61750303Y-69130010D01*
X62143629Y-68737370D01*
X62356757Y-68224100D01*
X62357242Y-67668339D01*
X62145010Y-67154697D01*
X61970000Y-66979381D01*
X61970000Y-66458356D01*
X62117846Y-66310510D01*
X76458070Y-66310510D01*
X76458070Y-68309490D01*
X76502348Y-68544807D01*
X76641420Y-68760931D01*
X76853620Y-68905921D01*
X77105510Y-68956930D01*
X79104490Y-68956930D01*
X79339807Y-68912652D01*
X79555931Y-68773580D01*
X79700921Y-68561380D01*
X79751930Y-68309490D01*
X79751930Y-66310510D01*
X79707652Y-66075193D01*
X79568580Y-65859069D01*
X79402527Y-65745610D01*
X79615072Y-65427514D01*
X79739490Y-64802022D01*
X79739490Y-64737978D01*
X79615072Y-64112486D01*
X79260759Y-63582219D01*
X79111700Y-63482621D01*
X79428068Y-63189726D01*
X79694627Y-62610355D01*
X79575807Y-62357000D01*
X78232000Y-62357000D01*
X78232000Y-62377000D01*
X77978000Y-62377000D01*
X77978000Y-62357000D01*
X76634193Y-62357000D01*
X76515373Y-62610355D01*
X76781932Y-63189726D01*
X77098300Y-63482621D01*
X76949241Y-63582219D01*
X76594928Y-64112486D01*
X76470510Y-64737978D01*
X76470510Y-64802022D01*
X76594928Y-65427514D01*
X76808453Y-65747077D01*
X76654069Y-65846420D01*
X76509079Y-66058620D01*
X76458070Y-66310510D01*
X62117846Y-66310510D01*
X72808356Y-55620000D01*
X76830452Y-55620000D01*
X76949241Y-55797781D01*
X77072290Y-55880000D01*
X76949241Y-55962219D01*
X76594928Y-56492486D01*
X76470510Y-57117978D01*
X76470510Y-57182022D01*
X76594928Y-57807514D01*
X76949241Y-58337781D01*
X77072290Y-58420000D01*
X76949241Y-58502219D01*
X76594928Y-59032486D01*
X76470510Y-59657978D01*
X76470510Y-59722022D01*
X76594928Y-60347514D01*
X76949241Y-60877781D01*
X77098300Y-60977379D01*
X76781932Y-61270274D01*
X76515373Y-61849645D01*
X76634193Y-62103000D01*
X77978000Y-62103000D01*
X77978000Y-62083000D01*
X78232000Y-62083000D01*
X78232000Y-62103000D01*
X79575807Y-62103000D01*
X79694627Y-61849645D01*
X79428068Y-61270274D01*
X79111700Y-60977379D01*
X79260759Y-60877781D01*
X79615072Y-60347514D01*
X79739490Y-59722022D01*
X79739490Y-59657978D01*
X79615072Y-59032486D01*
X79260759Y-58502219D01*
X79137710Y-58420000D01*
X79260759Y-58337781D01*
X79615072Y-57807514D01*
X79739490Y-57182022D01*
X79739490Y-57117978D01*
X79615072Y-56492486D01*
X79260759Y-55962219D01*
X79137710Y-55880000D01*
X79260759Y-55797781D01*
X79615072Y-55267514D01*
X79739490Y-54642022D01*
X79739490Y-54577978D01*
X79615072Y-53952486D01*
X79260759Y-53422219D01*
X78730492Y-53067906D01*
X78105000Y-52943488D01*
X77479508Y-53067906D01*
X76949241Y-53422219D01*
X76830452Y-53600000D01*
X72390000Y-53600000D01*
X72003490Y-53676882D01*
X71675822Y-53895822D01*
X60245822Y-65325822D01*
X60026882Y-65653490D01*
X59950000Y-66040000D01*
X59950000Y-66979304D01*
X59776371Y-67152630D01*
X59563243Y-67665900D01*
X59562758Y-68221661D01*
X54985000Y-68221661D01*
X54985000Y-48635000D01*
X60960000Y-48635000D01*
X61346510Y-48558118D01*
X61674178Y-48339178D01*
X61893118Y-48011510D01*
X61970000Y-47625000D01*
X61970000Y-46050696D01*
X62143629Y-45877370D01*
X62356757Y-45364100D01*
X62357242Y-44808339D01*
X62145010Y-44294697D01*
X61752370Y-43901371D01*
X61544488Y-43815051D01*
X61750303Y-43730010D01*
X62143629Y-43337370D01*
X62356757Y-42824100D01*
X62357242Y-42268339D01*
X62145010Y-41754697D01*
X61752370Y-41361371D01*
X61560273Y-41281605D01*
X61691143Y-41227397D01*
X61760608Y-40985213D01*
X60960000Y-40184605D01*
X60159392Y-40985213D01*
X60228857Y-41227397D01*
X60369318Y-41277509D01*
X60169697Y-41359990D01*
X59776371Y-41752630D01*
X59690051Y-41960512D01*
X59605010Y-41754697D01*
X59212370Y-41361371D01*
X59020273Y-41281605D01*
X59151143Y-41227397D01*
X59220608Y-40985213D01*
X58420000Y-40184605D01*
X57619392Y-40985213D01*
X57688857Y-41227397D01*
X57829318Y-41277509D01*
X57629697Y-41359990D01*
X57454381Y-41535000D01*
X54610000Y-41535000D01*
X54223490Y-41611882D01*
X53895822Y-41830822D01*
X47545822Y-48180822D01*
X47326882Y-48508490D01*
X47250000Y-48895000D01*
X47250000Y-94919304D01*
X47076371Y-95092630D01*
X46863243Y-95605900D01*
X46862758Y-96161661D01*
X47074990Y-96675303D01*
X47467630Y-97068629D01*
X47675512Y-97154949D01*
X47469697Y-97239990D01*
X47076371Y-97632630D01*
X46863243Y-98145900D01*
X46862758Y-98701661D01*
X47074990Y-99215303D01*
X47467630Y-99608629D01*
X47675512Y-99694949D01*
X47469697Y-99779990D01*
X47076371Y-100172630D01*
X46863243Y-100685900D01*
X46862758Y-101241661D01*
X47074990Y-101755303D01*
X47467630Y-102148629D01*
X47675512Y-102234949D01*
X47469697Y-102319990D01*
X47076371Y-102712630D01*
X46863243Y-103225900D01*
X46862758Y-103781661D01*
X47074990Y-104295303D01*
X47467630Y-104688629D01*
X47675512Y-104774949D01*
X47469697Y-104859990D01*
X47076371Y-105252630D01*
X46863243Y-105765900D01*
X46862758Y-106321661D01*
X47074990Y-106835303D01*
X47467630Y-107228629D01*
X47659727Y-107308395D01*
X47528857Y-107362603D01*
X47459392Y-107604787D01*
X48260000Y-108405395D01*
X49060608Y-107604787D01*
X48991143Y-107362603D01*
X48850682Y-107312491D01*
X49050303Y-107230010D01*
X49225619Y-107055000D01*
X57150000Y-107055000D01*
X57536510Y-106978118D01*
X57864178Y-106759178D01*
X59134178Y-105489178D01*
X59353118Y-105161510D01*
X59430000Y-104775000D01*
X59430000Y-84195000D01*
X59994304Y-84195000D01*
X60167630Y-84368629D01*
X60680900Y-84581757D01*
X61236661Y-84582242D01*
X61750303Y-84370010D01*
X62143629Y-83977370D01*
X62356757Y-83464100D01*
X62357242Y-82908339D01*
X62246235Y-82639679D01*
X67183000Y-82639679D01*
X67183000Y-83730321D01*
X67289340Y-84264930D01*
X67592172Y-84718149D01*
X68045391Y-85020981D01*
X68580000Y-85127321D01*
X69114609Y-85020981D01*
X69567828Y-84718149D01*
X69850000Y-84295850D01*
X70132172Y-84718149D01*
X70585391Y-85020981D01*
X71120000Y-85127321D01*
X71654609Y-85020981D01*
X72107828Y-84718149D01*
X72390000Y-84295850D01*
X72672172Y-84718149D01*
X73125391Y-85020981D01*
X73660000Y-85127321D01*
X74194609Y-85020981D01*
X74647828Y-84718149D01*
X74930000Y-84295850D01*
X75212172Y-84718149D01*
X75665391Y-85020981D01*
X76200000Y-85127321D01*
X76734609Y-85020981D01*
X77187828Y-84718149D01*
X77470000Y-84295850D01*
X77752172Y-84718149D01*
X78205391Y-85020981D01*
X78740000Y-85127321D01*
X79274609Y-85020981D01*
X79727828Y-84718149D01*
X80010000Y-84295850D01*
X80268000Y-84681973D01*
X80268000Y-90043000D01*
X80335367Y-90381675D01*
X80527210Y-90668790D01*
X80814325Y-90860633D01*
X81153000Y-90928000D01*
X108980420Y-90928000D01*
X109605000Y-91552579D01*
X109605000Y-118339815D01*
X109333880Y-118520971D01*
X109220000Y-118691405D01*
X109106120Y-118520971D01*
X108575687Y-118166548D01*
X107950000Y-118042091D01*
X107324313Y-118166548D01*
X106793880Y-118520971D01*
X106680000Y-118691405D01*
X106566120Y-118520971D01*
X106035687Y-118166548D01*
X105410000Y-118042091D01*
X104784313Y-118166548D01*
X104253880Y-118520971D01*
X104140000Y-118691405D01*
X104026120Y-118520971D01*
X103495687Y-118166548D01*
X102870000Y-118042091D01*
X102244313Y-118166548D01*
X101713880Y-118520971D01*
X101600000Y-118691405D01*
X101486120Y-118520971D01*
X100955687Y-118166548D01*
X100330000Y-118042091D01*
X99704313Y-118166548D01*
X99173880Y-118520971D01*
X99060000Y-118691405D01*
X98946120Y-118520971D01*
X98415687Y-118166548D01*
X97790000Y-118042091D01*
X97164313Y-118166548D01*
X96633880Y-118520971D01*
X96520000Y-118691405D01*
X96406120Y-118520971D01*
X95875687Y-118166548D01*
X95250000Y-118042091D01*
X94624313Y-118166548D01*
X94268594Y-118404231D01*
X94248327Y-118355301D01*
X94069698Y-118176673D01*
X93836309Y-118080000D01*
X92995750Y-118080000D01*
X92837000Y-118238750D01*
X92837000Y-119888000D01*
X92857000Y-119888000D01*
X92857000Y-120142000D01*
X92837000Y-120142000D01*
X92837000Y-121791250D01*
X92995750Y-121950000D01*
X93836309Y-121950000D01*
X94069698Y-121853327D01*
X94248327Y-121674699D01*
X94268594Y-121625769D01*
X94624313Y-121863452D01*
X95250000Y-121987909D01*
X95875687Y-121863452D01*
X96406120Y-121509029D01*
X96520000Y-121338595D01*
X96633880Y-121509029D01*
X97164313Y-121863452D01*
X97790000Y-121987909D01*
X98415687Y-121863452D01*
X98946120Y-121509029D01*
X99060000Y-121338595D01*
X99173880Y-121509029D01*
X99704313Y-121863452D01*
X100330000Y-121987909D01*
X100955687Y-121863452D01*
X101486120Y-121509029D01*
X101600000Y-121338595D01*
X101713880Y-121509029D01*
X102244313Y-121863452D01*
X102870000Y-121987909D01*
X103495687Y-121863452D01*
X104026120Y-121509029D01*
X104140000Y-121338595D01*
X104253880Y-121509029D01*
X104784313Y-121863452D01*
X105410000Y-121987909D01*
X106035687Y-121863452D01*
X106566120Y-121509029D01*
X106680000Y-121338595D01*
X106793880Y-121509029D01*
X107324313Y-121863452D01*
X107950000Y-121987909D01*
X108575687Y-121863452D01*
X109106120Y-121509029D01*
X109220000Y-121338595D01*
X109333880Y-121509029D01*
X109864313Y-121863452D01*
X110490000Y-121987909D01*
X111115687Y-121863452D01*
X111646120Y-121509029D01*
X111760000Y-121338595D01*
X111873880Y-121509029D01*
X112404313Y-121863452D01*
X113030000Y-121987909D01*
X113655687Y-121863452D01*
X114186120Y-121509029D01*
X114300000Y-121338595D01*
X114413880Y-121509029D01*
X114944313Y-121863452D01*
X115570000Y-121987909D01*
X116195687Y-121863452D01*
X116726120Y-121509029D01*
X116840000Y-121338595D01*
X116953880Y-121509029D01*
X117484313Y-121863452D01*
X118110000Y-121987909D01*
X118735687Y-121863452D01*
X119266120Y-121509029D01*
X119380000Y-121338595D01*
X119493880Y-121509029D01*
X120024313Y-121863452D01*
X120650000Y-121987909D01*
X121275687Y-121863452D01*
X121806120Y-121509029D01*
X121920000Y-121338595D01*
X122033880Y-121509029D01*
X122564313Y-121863452D01*
X123190000Y-121987909D01*
X123815687Y-121863452D01*
X124346120Y-121509029D01*
X124460000Y-121338595D01*
X124573880Y-121509029D01*
X125104313Y-121863452D01*
X125730000Y-121987909D01*
X126355687Y-121863452D01*
X126886120Y-121509029D01*
X127000000Y-121338595D01*
X127113880Y-121509029D01*
X127644313Y-121863452D01*
X128270000Y-121987909D01*
X128895687Y-121863452D01*
X129426120Y-121509029D01*
X129780543Y-120978596D01*
X129905000Y-120352909D01*
X129905000Y-119677091D01*
X129780543Y-119051404D01*
X129426120Y-118520971D01*
X128895687Y-118166548D01*
X128270000Y-118042091D01*
X127644313Y-118166548D01*
X127113880Y-118520971D01*
X127000000Y-118691405D01*
X126886120Y-118520971D01*
X126355687Y-118166548D01*
X125730000Y-118042091D01*
X125104313Y-118166548D01*
X124573880Y-118520971D01*
X124460000Y-118691405D01*
X124346120Y-118520971D01*
X123815687Y-118166548D01*
X123190000Y-118042091D01*
X122564313Y-118166548D01*
X122033880Y-118520971D01*
X121920000Y-118691405D01*
X121806120Y-118520971D01*
X121275687Y-118166548D01*
X120650000Y-118042091D01*
X120024313Y-118166548D01*
X119493880Y-118520971D01*
X119380000Y-118691405D01*
X119266120Y-118520971D01*
X118735687Y-118166548D01*
X118110000Y-118042091D01*
X117484313Y-118166548D01*
X116953880Y-118520971D01*
X116840000Y-118691405D01*
X116726120Y-118520971D01*
X116195687Y-118166548D01*
X115570000Y-118042091D01*
X114944313Y-118166548D01*
X114413880Y-118520971D01*
X114300000Y-118691405D01*
X114186120Y-118520971D01*
X113915000Y-118339815D01*
X113915000Y-117185213D01*
X161124392Y-117185213D01*
X161193857Y-117427397D01*
X161717302Y-117614144D01*
X162272368Y-117586362D01*
X162656143Y-117427397D01*
X162725608Y-117185213D01*
X161925000Y-116384605D01*
X161124392Y-117185213D01*
X113915000Y-117185213D01*
X113915000Y-115997302D01*
X160515856Y-115997302D01*
X160543638Y-116552368D01*
X160702603Y-116936143D01*
X160944787Y-117005608D01*
X161745395Y-116205000D01*
X162104605Y-116205000D01*
X162905213Y-117005608D01*
X163147397Y-116936143D01*
X163334144Y-116412698D01*
X163306362Y-115857632D01*
X163147397Y-115473857D01*
X162905213Y-115404392D01*
X162104605Y-116205000D01*
X161745395Y-116205000D01*
X160944787Y-115404392D01*
X160702603Y-115473857D01*
X160515856Y-115997302D01*
X113915000Y-115997302D01*
X113915000Y-89408005D01*
X113915001Y-89408000D01*
X113847634Y-89069326D01*
X113783975Y-88974054D01*
X113655790Y-88782210D01*
X113655787Y-88782208D01*
X113020790Y-88147210D01*
X112733675Y-87955367D01*
X112677484Y-87944190D01*
X112395000Y-87887999D01*
X112394995Y-87888000D01*
X84705000Y-87888000D01*
X84705000Y-84786857D01*
X84807828Y-84718149D01*
X85090000Y-84295850D01*
X85372172Y-84718149D01*
X85825391Y-85020981D01*
X86360000Y-85127321D01*
X86894609Y-85020981D01*
X87347828Y-84718149D01*
X87650660Y-84264930D01*
X87757000Y-83730321D01*
X87757000Y-82639679D01*
X90043000Y-82639679D01*
X90043000Y-83730321D01*
X90149340Y-84264930D01*
X90452172Y-84718149D01*
X90905391Y-85020981D01*
X91440000Y-85127321D01*
X91974609Y-85020981D01*
X92427828Y-84718149D01*
X92710000Y-84295850D01*
X92992172Y-84718149D01*
X93445391Y-85020981D01*
X93980000Y-85127321D01*
X94514609Y-85020981D01*
X94967828Y-84718149D01*
X95250000Y-84295850D01*
X95532172Y-84718149D01*
X95985391Y-85020981D01*
X96520000Y-85127321D01*
X97054609Y-85020981D01*
X97507828Y-84718149D01*
X97790000Y-84295850D01*
X98072172Y-84718149D01*
X98525391Y-85020981D01*
X99060000Y-85127321D01*
X99594609Y-85020981D01*
X100047828Y-84718149D01*
X100330000Y-84295850D01*
X100612172Y-84718149D01*
X101065391Y-85020981D01*
X101600000Y-85127321D01*
X102134609Y-85020981D01*
X102587828Y-84718149D01*
X102870000Y-84295850D01*
X103152172Y-84718149D01*
X103605391Y-85020981D01*
X104140000Y-85127321D01*
X104674609Y-85020981D01*
X105127828Y-84718149D01*
X105410000Y-84295850D01*
X105692172Y-84718149D01*
X106145391Y-85020981D01*
X106680000Y-85127321D01*
X107214609Y-85020981D01*
X107667828Y-84718149D01*
X107950000Y-84295850D01*
X108232172Y-84718149D01*
X108685391Y-85020981D01*
X109220000Y-85127321D01*
X109754609Y-85020981D01*
X110207828Y-84718149D01*
X110510660Y-84264930D01*
X110617000Y-83730321D01*
X110617000Y-82639679D01*
X111887000Y-82639679D01*
X111887000Y-83730321D01*
X111993340Y-84264930D01*
X112296172Y-84718149D01*
X112749391Y-85020981D01*
X113284000Y-85127321D01*
X113818609Y-85020981D01*
X114271828Y-84718149D01*
X114554000Y-84295850D01*
X114836172Y-84718149D01*
X115289391Y-85020981D01*
X115824000Y-85127321D01*
X116358609Y-85020981D01*
X116811828Y-84718149D01*
X117094000Y-84295850D01*
X117376172Y-84718149D01*
X117829391Y-85020981D01*
X118364000Y-85127321D01*
X118898609Y-85020981D01*
X119351828Y-84718149D01*
X119634000Y-84295850D01*
X119916172Y-84718149D01*
X120369391Y-85020981D01*
X120904000Y-85127321D01*
X121438609Y-85020981D01*
X121891828Y-84718149D01*
X122174000Y-84295850D01*
X122456172Y-84718149D01*
X122909391Y-85020981D01*
X123444000Y-85127321D01*
X123978609Y-85020981D01*
X124431828Y-84718149D01*
X124714000Y-84295850D01*
X124996172Y-84718149D01*
X125449391Y-85020981D01*
X125984000Y-85127321D01*
X126518609Y-85020981D01*
X126971828Y-84718149D01*
X127263330Y-84281887D01*
X127281941Y-84344941D01*
X127625974Y-84770630D01*
X128106723Y-85032260D01*
X128180930Y-85047220D01*
X128397000Y-84924720D01*
X128397000Y-83312000D01*
X128651000Y-83312000D01*
X128651000Y-84924720D01*
X128867070Y-85047220D01*
X128941277Y-85032260D01*
X129422026Y-84770630D01*
X129766059Y-84344941D01*
X129921000Y-83820000D01*
X129921000Y-83312000D01*
X128651000Y-83312000D01*
X128397000Y-83312000D01*
X128377000Y-83312000D01*
X128377000Y-83058000D01*
X128397000Y-83058000D01*
X128397000Y-81445280D01*
X128651000Y-81445280D01*
X128651000Y-83058000D01*
X129921000Y-83058000D01*
X129921000Y-82550000D01*
X129766059Y-82025059D01*
X129422026Y-81599370D01*
X128941277Y-81337740D01*
X128867070Y-81322780D01*
X128651000Y-81445280D01*
X128397000Y-81445280D01*
X128180930Y-81322780D01*
X128106723Y-81337740D01*
X127625974Y-81599370D01*
X127281941Y-82025059D01*
X127263330Y-82088113D01*
X126971828Y-81651851D01*
X126518609Y-81349019D01*
X125984000Y-81242679D01*
X125449391Y-81349019D01*
X124996172Y-81651851D01*
X124714000Y-82074150D01*
X124431828Y-81651851D01*
X123978609Y-81349019D01*
X123444000Y-81242679D01*
X122909391Y-81349019D01*
X122456172Y-81651851D01*
X122174000Y-82074150D01*
X121891828Y-81651851D01*
X121438609Y-81349019D01*
X120904000Y-81242679D01*
X120369391Y-81349019D01*
X119916172Y-81651851D01*
X119634000Y-82074150D01*
X119351828Y-81651851D01*
X118898609Y-81349019D01*
X118364000Y-81242679D01*
X117829391Y-81349019D01*
X117376172Y-81651851D01*
X117094000Y-82074150D01*
X116811828Y-81651851D01*
X116358609Y-81349019D01*
X115824000Y-81242679D01*
X115289391Y-81349019D01*
X114836172Y-81651851D01*
X114554000Y-82074150D01*
X114271828Y-81651851D01*
X113818609Y-81349019D01*
X113284000Y-81242679D01*
X112749391Y-81349019D01*
X112296172Y-81651851D01*
X111993340Y-82105070D01*
X111887000Y-82639679D01*
X110617000Y-82639679D01*
X110510660Y-82105070D01*
X110207828Y-81651851D01*
X109754609Y-81349019D01*
X109220000Y-81242679D01*
X108685391Y-81349019D01*
X108232172Y-81651851D01*
X107950000Y-82074150D01*
X107667828Y-81651851D01*
X107214609Y-81349019D01*
X106680000Y-81242679D01*
X106145391Y-81349019D01*
X105692172Y-81651851D01*
X105410000Y-82074150D01*
X105127828Y-81651851D01*
X104674609Y-81349019D01*
X104140000Y-81242679D01*
X103605391Y-81349019D01*
X103152172Y-81651851D01*
X102870000Y-82074150D01*
X102587828Y-81651851D01*
X102134609Y-81349019D01*
X101600000Y-81242679D01*
X101065391Y-81349019D01*
X100612172Y-81651851D01*
X100330000Y-82074150D01*
X100047828Y-81651851D01*
X99594609Y-81349019D01*
X99060000Y-81242679D01*
X98525391Y-81349019D01*
X98072172Y-81651851D01*
X97790000Y-82074150D01*
X97507828Y-81651851D01*
X97054609Y-81349019D01*
X96520000Y-81242679D01*
X95985391Y-81349019D01*
X95532172Y-81651851D01*
X95250000Y-82074150D01*
X94967828Y-81651851D01*
X94514609Y-81349019D01*
X93980000Y-81242679D01*
X93445391Y-81349019D01*
X92992172Y-81651851D01*
X92710000Y-82074150D01*
X92427828Y-81651851D01*
X91974609Y-81349019D01*
X91440000Y-81242679D01*
X90905391Y-81349019D01*
X90452172Y-81651851D01*
X90149340Y-82105070D01*
X90043000Y-82639679D01*
X87757000Y-82639679D01*
X87650660Y-82105070D01*
X87347828Y-81651851D01*
X86894609Y-81349019D01*
X86360000Y-81242679D01*
X85825391Y-81349019D01*
X85372172Y-81651851D01*
X85090000Y-82074150D01*
X84807828Y-81651851D01*
X84354609Y-81349019D01*
X83820000Y-81242679D01*
X83285391Y-81349019D01*
X82832172Y-81651851D01*
X82550000Y-82074150D01*
X82267828Y-81651851D01*
X81814609Y-81349019D01*
X81280000Y-81242679D01*
X80745391Y-81349019D01*
X80292172Y-81651851D01*
X80010000Y-82074150D01*
X79727828Y-81651851D01*
X79274609Y-81349019D01*
X78740000Y-81242679D01*
X78205391Y-81349019D01*
X77752172Y-81651851D01*
X77470000Y-82074150D01*
X77187828Y-81651851D01*
X76734609Y-81349019D01*
X76200000Y-81242679D01*
X75665391Y-81349019D01*
X75212172Y-81651851D01*
X74930000Y-82074150D01*
X74647828Y-81651851D01*
X74194609Y-81349019D01*
X73660000Y-81242679D01*
X73125391Y-81349019D01*
X72672172Y-81651851D01*
X72390000Y-82074150D01*
X72107828Y-81651851D01*
X71654609Y-81349019D01*
X71120000Y-81242679D01*
X70585391Y-81349019D01*
X70132172Y-81651851D01*
X69850000Y-82074150D01*
X69567828Y-81651851D01*
X69114609Y-81349019D01*
X68580000Y-81242679D01*
X68045391Y-81349019D01*
X67592172Y-81651851D01*
X67289340Y-82105070D01*
X67183000Y-82639679D01*
X62246235Y-82639679D01*
X62145010Y-82394697D01*
X61970000Y-82219381D01*
X61970000Y-79750000D01*
X160915000Y-79750000D01*
X160915000Y-107619304D01*
X160741371Y-107792630D01*
X160528243Y-108305900D01*
X160527758Y-108861661D01*
X160739990Y-109375303D01*
X161132630Y-109768629D01*
X161340512Y-109854949D01*
X161134697Y-109939990D01*
X160741371Y-110332630D01*
X160528243Y-110845900D01*
X160527758Y-111401661D01*
X160739990Y-111915303D01*
X161132630Y-112308629D01*
X161340512Y-112394949D01*
X161134697Y-112479990D01*
X160741371Y-112872630D01*
X160528243Y-113385900D01*
X160527758Y-113941661D01*
X160739990Y-114455303D01*
X161132630Y-114848629D01*
X161324727Y-114928395D01*
X161193857Y-114982603D01*
X161124392Y-115224787D01*
X161925000Y-116025395D01*
X162725608Y-115224787D01*
X162656143Y-114982603D01*
X162515682Y-114932491D01*
X162715303Y-114850010D01*
X163108629Y-114457370D01*
X163321757Y-113944100D01*
X163322242Y-113388339D01*
X163110010Y-112874697D01*
X162717370Y-112481371D01*
X162509488Y-112395051D01*
X162715303Y-112310010D01*
X163108629Y-111917370D01*
X163321757Y-111404100D01*
X163322242Y-110848339D01*
X163110010Y-110334697D01*
X162717370Y-109941371D01*
X162509488Y-109855051D01*
X162715303Y-109770010D01*
X163108629Y-109377370D01*
X163321757Y-108864100D01*
X163322242Y-108308339D01*
X163110010Y-107794697D01*
X162935000Y-107619381D01*
X162935000Y-82895213D01*
X168109392Y-82895213D01*
X168178857Y-83137397D01*
X168702302Y-83324144D01*
X169257368Y-83296362D01*
X169641143Y-83137397D01*
X169710608Y-82895213D01*
X168910000Y-82094605D01*
X168109392Y-82895213D01*
X162935000Y-82895213D01*
X162935000Y-81707302D01*
X167500856Y-81707302D01*
X167528638Y-82262368D01*
X167687603Y-82646143D01*
X167929787Y-82715608D01*
X168730395Y-81915000D01*
X167929787Y-81114392D01*
X167687603Y-81183857D01*
X167500856Y-81707302D01*
X162935000Y-81707302D01*
X162935000Y-80934787D01*
X168109392Y-80934787D01*
X168910000Y-81735395D01*
X169710608Y-80934787D01*
X169641143Y-80692603D01*
X169117698Y-80505856D01*
X168562632Y-80533638D01*
X168178857Y-80692603D01*
X168109392Y-80934787D01*
X162935000Y-80934787D01*
X162935000Y-79750000D01*
X170440000Y-79750000D01*
X170440000Y-80949304D01*
X170266371Y-81122630D01*
X170186605Y-81314727D01*
X170132397Y-81183857D01*
X169890213Y-81114392D01*
X169089605Y-81915000D01*
X169890213Y-82715608D01*
X170132397Y-82646143D01*
X170182509Y-82505682D01*
X170264990Y-82705303D01*
X170440000Y-82880619D01*
X170440000Y-91440000D01*
X170516882Y-91826510D01*
X170735822Y-92154178D01*
X174250000Y-95668356D01*
X174250000Y-99366106D01*
X174125845Y-99065628D01*
X173497679Y-98436364D01*
X172676519Y-98095389D01*
X171787381Y-98094613D01*
X170965628Y-98434155D01*
X170336364Y-99062321D01*
X169995389Y-99883481D01*
X169994613Y-100772619D01*
X170334155Y-101594372D01*
X170962321Y-102223636D01*
X171783481Y-102564611D01*
X172672619Y-102565387D01*
X173494372Y-102225845D01*
X174123636Y-101597679D01*
X174250000Y-101293360D01*
X174250000Y-101816644D01*
X173315822Y-102750822D01*
X173096882Y-103078490D01*
X173020000Y-103465000D01*
X173020000Y-106169314D01*
X172729449Y-106459357D01*
X172495267Y-107023330D01*
X172494735Y-107633991D01*
X172727932Y-108198371D01*
X173159357Y-108630551D01*
X173723330Y-108864733D01*
X174333991Y-108865265D01*
X174898371Y-108632068D01*
X175280288Y-108250818D01*
X175659357Y-108630551D01*
X176223330Y-108864733D01*
X176833991Y-108865265D01*
X177398371Y-108632068D01*
X177620668Y-108410159D01*
X178129446Y-108410159D01*
X178215852Y-108666643D01*
X178789336Y-108876458D01*
X179399460Y-108850839D01*
X179844148Y-108666643D01*
X179930554Y-108410159D01*
X179030000Y-107509605D01*
X178129446Y-108410159D01*
X177620668Y-108410159D01*
X177830551Y-108200643D01*
X177834294Y-108191628D01*
X177949841Y-108230554D01*
X178850395Y-107330000D01*
X179209605Y-107330000D01*
X180110159Y-108230554D01*
X180366643Y-108144148D01*
X180576458Y-107570664D01*
X180550839Y-106960540D01*
X180366643Y-106515852D01*
X180110159Y-106429446D01*
X179209605Y-107330000D01*
X178850395Y-107330000D01*
X177949841Y-106429446D01*
X177834786Y-106468207D01*
X177832068Y-106461629D01*
X177620650Y-106249841D01*
X178129446Y-106249841D01*
X179030000Y-107150395D01*
X179930554Y-106249841D01*
X179844148Y-105993357D01*
X179270664Y-105783542D01*
X178660540Y-105809161D01*
X178215852Y-105993357D01*
X178129446Y-106249841D01*
X177620650Y-106249841D01*
X177540000Y-106169050D01*
X177540000Y-104558356D01*
X178218356Y-103880000D01*
X181610000Y-103880000D01*
X181996510Y-103803118D01*
X182324178Y-103584178D01*
X182543118Y-103256510D01*
X182620000Y-102870000D01*
X182620000Y-45085000D01*
X182543118Y-44698490D01*
X182324178Y-44370822D01*
X181054178Y-43100822D01*
X180726510Y-42881882D01*
X180340000Y-42805000D01*
X100070000Y-42805000D01*
X100070000Y-36424966D01*
X100330000Y-36035850D01*
X100612172Y-36458149D01*
X101065391Y-36760981D01*
X101600000Y-36867321D01*
X102134609Y-36760981D01*
X102587828Y-36458149D01*
X102870000Y-36035850D01*
X103152172Y-36458149D01*
X103605391Y-36760981D01*
X104140000Y-36867321D01*
X104674609Y-36760981D01*
X105127828Y-36458149D01*
X105430660Y-36004930D01*
X105537000Y-35470321D01*
X105537000Y-34379679D01*
X105430660Y-33845070D01*
X105127828Y-33391851D01*
X104674609Y-33089019D01*
X104140000Y-32982679D01*
X103605391Y-33089019D01*
X103152172Y-33391851D01*
X102870000Y-33814150D01*
X102587828Y-33391851D01*
X102134609Y-33089019D01*
X101600000Y-32982679D01*
X101065391Y-33089019D01*
X100612172Y-33391851D01*
X100330000Y-33814150D01*
X100047828Y-33391851D01*
X99594609Y-33089019D01*
X99060000Y-32982679D01*
X98525391Y-33089019D01*
X98072172Y-33391851D01*
X97790000Y-33814150D01*
X97507828Y-33391851D01*
X97054609Y-33089019D01*
X96520000Y-32982679D01*
X95985391Y-33089019D01*
X95532172Y-33391851D01*
X95250000Y-33814150D01*
X94967828Y-33391851D01*
X94514609Y-33089019D01*
X93980000Y-32982679D01*
X93445391Y-33089019D01*
X92992172Y-33391851D01*
X92689340Y-33845070D01*
X92583000Y-34379679D01*
X92583000Y-35470321D01*
X92689340Y-36004930D01*
X92992172Y-36458149D01*
X93445391Y-36760981D01*
X93980000Y-36867321D01*
X94514609Y-36760981D01*
X94967828Y-36458149D01*
X95250000Y-36035850D01*
X95532172Y-36458149D01*
X95985391Y-36760981D01*
X96520000Y-36867321D01*
X97054609Y-36760981D01*
X97507828Y-36458149D01*
X97790000Y-36035850D01*
X98050000Y-36424966D01*
X98050000Y-43815000D01*
X98126882Y-44201510D01*
X98345822Y-44529178D01*
X98673490Y-44748118D01*
X99060000Y-44825000D01*
X179921644Y-44825000D01*
X180600000Y-45503356D01*
X180600000Y-101860000D01*
X177800000Y-101860000D01*
X177413490Y-101936882D01*
X177085822Y-102155822D01*
X175815822Y-103425822D01*
X175596882Y-103753490D01*
X175520000Y-104140000D01*
X175520000Y-106169314D01*
X175279712Y-106409182D01*
X175040000Y-106169050D01*
X175040000Y-103883356D01*
X175974178Y-102949178D01*
X176193118Y-102621510D01*
X176270000Y-102235000D01*
X176270000Y-95250000D01*
X176193118Y-94863490D01*
X175974178Y-94535822D01*
X172460000Y-91021644D01*
X172460000Y-82880696D01*
X172633629Y-82707370D01*
X172719949Y-82499488D01*
X172804990Y-82705303D01*
X173197630Y-83098629D01*
X173710900Y-83311757D01*
X174266661Y-83312242D01*
X174780303Y-83100010D01*
X175173629Y-82707370D01*
X175259949Y-82499488D01*
X175344990Y-82705303D01*
X175737630Y-83098629D01*
X176250900Y-83311757D01*
X176806661Y-83312242D01*
X177320303Y-83100010D01*
X177713629Y-82707370D01*
X177799949Y-82499488D01*
X177884990Y-82705303D01*
X178277630Y-83098629D01*
X178790900Y-83311757D01*
X179346661Y-83312242D01*
X179860303Y-83100010D01*
X180253629Y-82707370D01*
X180466757Y-82194100D01*
X180467242Y-81638339D01*
X180255010Y-81124697D01*
X180080000Y-80949381D01*
X180080000Y-74295000D01*
X180003118Y-73908490D01*
X179784178Y-73580822D01*
X175339178Y-69135822D01*
X175011510Y-68916882D01*
X174625000Y-68840000D01*
X107733356Y-68840000D01*
X95685017Y-56791661D01*
X169417758Y-56791661D01*
X169629990Y-57305303D01*
X170022630Y-57698629D01*
X170535900Y-57911757D01*
X171091661Y-57912242D01*
X171605303Y-57700010D01*
X171810457Y-57495213D01*
X172554392Y-57495213D01*
X172623857Y-57737397D01*
X173147302Y-57924144D01*
X173702368Y-57896362D01*
X174086143Y-57737397D01*
X174155608Y-57495213D01*
X173355000Y-56694605D01*
X172554392Y-57495213D01*
X171810457Y-57495213D01*
X171998629Y-57307370D01*
X172078395Y-57115273D01*
X172132603Y-57246143D01*
X172374787Y-57315608D01*
X173175395Y-56515000D01*
X173534605Y-56515000D01*
X174335213Y-57315608D01*
X174577397Y-57246143D01*
X174627509Y-57105682D01*
X174709990Y-57305303D01*
X175102630Y-57698629D01*
X175615900Y-57911757D01*
X176171661Y-57912242D01*
X176685303Y-57700010D01*
X177078629Y-57307370D01*
X177164949Y-57099488D01*
X177249990Y-57305303D01*
X177642630Y-57698629D01*
X178155900Y-57911757D01*
X178711661Y-57912242D01*
X179225303Y-57700010D01*
X179618629Y-57307370D01*
X179831757Y-56794100D01*
X179832242Y-56238339D01*
X179620010Y-55724697D01*
X179227370Y-55331371D01*
X178714100Y-55118243D01*
X178158339Y-55117758D01*
X177644697Y-55329990D01*
X177251371Y-55722630D01*
X177165051Y-55930512D01*
X177080010Y-55724697D01*
X176687370Y-55331371D01*
X176174100Y-55118243D01*
X175618339Y-55117758D01*
X175104697Y-55329990D01*
X174711371Y-55722630D01*
X174631605Y-55914727D01*
X174577397Y-55783857D01*
X174335213Y-55714392D01*
X173534605Y-56515000D01*
X173175395Y-56515000D01*
X172374787Y-55714392D01*
X172132603Y-55783857D01*
X172082491Y-55924318D01*
X172000010Y-55724697D01*
X171810432Y-55534787D01*
X172554392Y-55534787D01*
X173355000Y-56335395D01*
X174155608Y-55534787D01*
X174086143Y-55292603D01*
X173562698Y-55105856D01*
X173007632Y-55133638D01*
X172623857Y-55292603D01*
X172554392Y-55534787D01*
X171810432Y-55534787D01*
X171607370Y-55331371D01*
X171094100Y-55118243D01*
X170538339Y-55117758D01*
X170024697Y-55329990D01*
X169631371Y-55722630D01*
X169418243Y-56235900D01*
X169417758Y-56791661D01*
X95685017Y-56791661D01*
X77210000Y-38316644D01*
X77210000Y-36424966D01*
X77470000Y-36035850D01*
X77752172Y-36458149D01*
X78205391Y-36760981D01*
X78740000Y-36867321D01*
X79274609Y-36760981D01*
X79727828Y-36458149D01*
X80010000Y-36035850D01*
X80292172Y-36458149D01*
X80745391Y-36760981D01*
X81280000Y-36867321D01*
X81814609Y-36760981D01*
X82267828Y-36458149D01*
X82570660Y-36004930D01*
X82677000Y-35470321D01*
X82677000Y-34379679D01*
X82570660Y-33845070D01*
X82267828Y-33391851D01*
X81814609Y-33089019D01*
X81280000Y-32982679D01*
X80745391Y-33089019D01*
X80292172Y-33391851D01*
X80010000Y-33814150D01*
X79727828Y-33391851D01*
X79274609Y-33089019D01*
X78740000Y-32982679D01*
X78205391Y-33089019D01*
X77752172Y-33391851D01*
X77470000Y-33814150D01*
X77187828Y-33391851D01*
X76734609Y-33089019D01*
X76200000Y-32982679D01*
X75665391Y-33089019D01*
X75212172Y-33391851D01*
X74930000Y-33814150D01*
X74647828Y-33391851D01*
X74194609Y-33089019D01*
X73660000Y-32982679D01*
X73125391Y-33089019D01*
X72672172Y-33391851D01*
X72390000Y-33814150D01*
X72107828Y-33391851D01*
X71654609Y-33089019D01*
X71120000Y-32982679D01*
X70585391Y-33089019D01*
X70132172Y-33391851D01*
X69850000Y-33814150D01*
X69567828Y-33391851D01*
X69114609Y-33089019D01*
X68580000Y-32982679D01*
X68045391Y-33089019D01*
X67592172Y-33391851D01*
X67289340Y-33845070D01*
X67183000Y-34379679D01*
X67183000Y-35274644D01*
X64788354Y-32879998D01*
X108085000Y-32879998D01*
X108085000Y-33612109D01*
X107929340Y-33845070D01*
X107823000Y-34379679D01*
X107823000Y-35470321D01*
X107929340Y-36004930D01*
X108232172Y-36458149D01*
X108685391Y-36760981D01*
X109220000Y-36867321D01*
X109754609Y-36760981D01*
X110207828Y-36458149D01*
X110499330Y-36021887D01*
X110517941Y-36084941D01*
X110861974Y-36510630D01*
X111342723Y-36772260D01*
X111416930Y-36787220D01*
X111633000Y-36664720D01*
X111633000Y-35052000D01*
X111887000Y-35052000D01*
X111887000Y-36664720D01*
X112103070Y-36787220D01*
X112177277Y-36772260D01*
X112658026Y-36510630D01*
X113002059Y-36084941D01*
X113030000Y-35990277D01*
X113057941Y-36084941D01*
X113401974Y-36510630D01*
X113882723Y-36772260D01*
X113956930Y-36787220D01*
X114173000Y-36664720D01*
X114173000Y-35052000D01*
X111887000Y-35052000D01*
X111633000Y-35052000D01*
X111613000Y-35052000D01*
X111613000Y-34798000D01*
X111633000Y-34798000D01*
X111633000Y-33185280D01*
X111887000Y-33185280D01*
X111887000Y-34798000D01*
X114173000Y-34798000D01*
X114173000Y-33185280D01*
X114427000Y-33185280D01*
X114427000Y-34798000D01*
X114447000Y-34798000D01*
X114447000Y-35052000D01*
X114427000Y-35052000D01*
X114427000Y-36664720D01*
X114643070Y-36787220D01*
X114717277Y-36772260D01*
X115198026Y-36510630D01*
X115542059Y-36084941D01*
X115560670Y-36021887D01*
X115852172Y-36458149D01*
X116305391Y-36760981D01*
X116840000Y-36867321D01*
X117374609Y-36760981D01*
X117827828Y-36458149D01*
X118110000Y-36035850D01*
X118392172Y-36458149D01*
X118845391Y-36760981D01*
X119380000Y-36867321D01*
X119914609Y-36760981D01*
X120367828Y-36458149D01*
X120650000Y-36035850D01*
X120932172Y-36458149D01*
X121385391Y-36760981D01*
X121920000Y-36867321D01*
X122454609Y-36760981D01*
X122907828Y-36458149D01*
X123190000Y-36035850D01*
X123472172Y-36458149D01*
X123925391Y-36760981D01*
X124460000Y-36867321D01*
X124994609Y-36760981D01*
X125447828Y-36458149D01*
X125730000Y-36035850D01*
X126012172Y-36458149D01*
X126465391Y-36760981D01*
X127000000Y-36867321D01*
X127534609Y-36760981D01*
X127987828Y-36458149D01*
X128290660Y-36004930D01*
X128397000Y-35470321D01*
X128397000Y-34379679D01*
X128290660Y-33845070D01*
X127987828Y-33391851D01*
X127534609Y-33089019D01*
X127000000Y-32982679D01*
X126465391Y-33089019D01*
X126012172Y-33391851D01*
X125730000Y-33814150D01*
X125447828Y-33391851D01*
X124994609Y-33089019D01*
X124460000Y-32982679D01*
X123925391Y-33089019D01*
X123472172Y-33391851D01*
X123190000Y-33814150D01*
X122907828Y-33391851D01*
X122454609Y-33089019D01*
X121920000Y-32982679D01*
X121385391Y-33089019D01*
X120932172Y-33391851D01*
X120650000Y-33814150D01*
X120367828Y-33391851D01*
X119914609Y-33089019D01*
X119380000Y-32982679D01*
X118845391Y-33089019D01*
X118392172Y-33391851D01*
X118110000Y-33814150D01*
X117850000Y-33425034D01*
X117850000Y-32760000D01*
X160236644Y-32760000D01*
X164385822Y-36909178D01*
X164713490Y-37128118D01*
X165100000Y-37205000D01*
X169849304Y-37205000D01*
X170022630Y-37378629D01*
X170535900Y-37591757D01*
X171091661Y-37592242D01*
X171605303Y-37380010D01*
X171810457Y-37175213D01*
X172554392Y-37175213D01*
X172623857Y-37417397D01*
X173147302Y-37604144D01*
X173702368Y-37576362D01*
X174086143Y-37417397D01*
X174155608Y-37175213D01*
X173355000Y-36374605D01*
X172554392Y-37175213D01*
X171810457Y-37175213D01*
X171998629Y-36987370D01*
X172078395Y-36795273D01*
X172132603Y-36926143D01*
X172374787Y-36995608D01*
X173175395Y-36195000D01*
X173534605Y-36195000D01*
X174335213Y-36995608D01*
X174577397Y-36926143D01*
X174627509Y-36785682D01*
X174709990Y-36985303D01*
X175102630Y-37378629D01*
X175615900Y-37591757D01*
X176171661Y-37592242D01*
X176685303Y-37380010D01*
X177078629Y-36987370D01*
X177164949Y-36779488D01*
X177249990Y-36985303D01*
X177642630Y-37378629D01*
X178155900Y-37591757D01*
X178711661Y-37592242D01*
X179225303Y-37380010D01*
X179618629Y-36987370D01*
X179831757Y-36474100D01*
X179832242Y-35918339D01*
X179620010Y-35404697D01*
X179227370Y-35011371D01*
X178714100Y-34798243D01*
X178158339Y-34797758D01*
X177644697Y-35009990D01*
X177251371Y-35402630D01*
X177165051Y-35610512D01*
X177080010Y-35404697D01*
X176687370Y-35011371D01*
X176174100Y-34798243D01*
X175618339Y-34797758D01*
X175104697Y-35009990D01*
X174711371Y-35402630D01*
X174631605Y-35594727D01*
X174577397Y-35463857D01*
X174335213Y-35394392D01*
X173534605Y-36195000D01*
X173175395Y-36195000D01*
X172374787Y-35394392D01*
X172132603Y-35463857D01*
X172082491Y-35604318D01*
X172000010Y-35404697D01*
X171810432Y-35214787D01*
X172554392Y-35214787D01*
X173355000Y-36015395D01*
X174155608Y-35214787D01*
X174086143Y-34972603D01*
X173562698Y-34785856D01*
X173007632Y-34813638D01*
X172623857Y-34972603D01*
X172554392Y-35214787D01*
X171810432Y-35214787D01*
X171607370Y-35011371D01*
X171094100Y-34798243D01*
X170538339Y-34797758D01*
X170024697Y-35009990D01*
X169849381Y-35185000D01*
X165518356Y-35185000D01*
X161369178Y-31035822D01*
X161041510Y-30816882D01*
X160655000Y-30740000D01*
X116840000Y-30740000D01*
X116453490Y-30816882D01*
X116125822Y-31035822D01*
X115906882Y-31363490D01*
X115830000Y-31750000D01*
X115830000Y-33425034D01*
X115560670Y-33828113D01*
X115542059Y-33765059D01*
X115198026Y-33339370D01*
X114717277Y-33077740D01*
X114643070Y-33062780D01*
X114427000Y-33185280D01*
X114173000Y-33185280D01*
X113956930Y-33062780D01*
X113882723Y-33077740D01*
X113401974Y-33339370D01*
X113057941Y-33765059D01*
X113030000Y-33859723D01*
X113002059Y-33765059D01*
X112658026Y-33339370D01*
X112177277Y-33077740D01*
X112103070Y-33062780D01*
X111887000Y-33185280D01*
X111633000Y-33185280D01*
X111416930Y-33062780D01*
X111342723Y-33077740D01*
X110861974Y-33339370D01*
X110517941Y-33765059D01*
X110499330Y-33828113D01*
X110355000Y-33612109D01*
X110355000Y-31750000D01*
X110268603Y-31315654D01*
X110022566Y-30947434D01*
X110017564Y-30942432D01*
X109714603Y-30740000D01*
X109649344Y-30696395D01*
X109214998Y-30609998D01*
X35565002Y-30609998D01*
X35130656Y-30696395D01*
X34762436Y-30942432D01*
X32217434Y-33487434D01*
X31971397Y-33855654D01*
X31885000Y-34290000D01*
X24180000Y-34290000D01*
X24180000Y-31817467D01*
X24333602Y-31045259D01*
X24732807Y-30447807D01*
X25330257Y-30048602D01*
X26102467Y-29895000D01*
X190432533Y-29895000D01*
X191204741Y-30048602D01*
M02*
