M48
;DRILL file {KiCad 4.0.6} date Mon Oct 30 09:57:56 2017
;FORMAT={-:-/ absolute / metric / decimal}
FMAT,2
METRIC,TZ
T1C0.762
T2C1.000
T3C1.016
T4C1.097
T5C1.200
T6C2.200
%
G90
G05
M71
T1
X48.26Y-95.885
X48.26Y-98.425
X48.26Y-100.965
X48.26Y-103.505
X48.26Y-106.045
X48.26Y-108.585
X60.96Y-67.945
X60.96Y-70.485
X63.5Y-71.12
X66.04Y-71.12
X68.58Y-71.12
X71.12Y-71.12
X161.925Y-108.585
X161.925Y-111.125
X161.925Y-113.665
X161.925Y-116.205
X168.91Y-81.915
X170.815Y-36.195
X170.815Y-56.515
X171.45Y-81.915
X173.355Y-36.195
X173.355Y-56.515
X173.99Y-81.915
X175.895Y-36.195
X175.895Y-56.515
X176.53Y-81.915
X178.435Y-36.195
X178.435Y-56.515
X179.07Y-81.915
T2
X174.03Y-107.33
X176.53Y-107.33
X179.03Y-107.33
T3
X58.42Y-40.005
X58.42Y-42.545
X58.42Y-45.085
X58.42Y-50.165
X58.42Y-52.705
X58.42Y-55.245
X58.42Y-83.185
X60.96Y-40.005
X60.96Y-42.545
X60.96Y-45.085
X60.96Y-50.165
X60.96Y-52.705
X60.96Y-83.185
X68.58Y-34.925
X68.58Y-83.185
X71.12Y-34.925
X71.12Y-83.185
X73.66Y-34.925
X73.66Y-83.185
X76.2Y-34.925
X76.2Y-83.185
X78.74Y-34.925
X78.74Y-83.185
X81.28Y-34.925
X81.28Y-83.185
X83.82Y-83.185
X86.36Y-83.185
X91.44Y-83.185
X93.98Y-34.925
X93.98Y-83.185
X96.52Y-34.925
X96.52Y-83.185
X99.06Y-34.925
X99.06Y-83.185
X101.6Y-34.925
X101.6Y-83.185
X104.14Y-34.925
X104.14Y-83.185
X106.68Y-83.185
X109.22Y-34.925
X109.22Y-83.185
X111.76Y-34.925
X113.284Y-83.185
X114.3Y-34.925
X115.824Y-83.185
X116.84Y-34.925
X118.364Y-83.185
X119.38Y-34.925
X120.904Y-83.185
X121.92Y-34.925
X123.444Y-83.185
X124.46Y-34.925
X125.984Y-83.185
X127.Y-34.925
X128.524Y-83.185
T4
X39.37Y-40.005
X39.37Y-42.545
X39.37Y-45.085
X39.37Y-47.625
X39.37Y-50.165
X39.37Y-52.705
X39.37Y-55.245
X39.37Y-57.785
X78.105Y-54.61
X78.105Y-57.15
X78.105Y-59.69
X78.105Y-62.23
X78.105Y-64.77
X78.105Y-67.31
X83.185Y-120.015
X85.725Y-120.015
T5
X92.71Y-120.015
X95.25Y-120.015
X97.79Y-120.015
X100.33Y-120.015
X102.87Y-120.015
X105.41Y-120.015
X107.95Y-120.015
X110.49Y-120.015
X113.03Y-120.015
X115.57Y-120.015
X118.11Y-120.015
X120.65Y-120.015
X123.19Y-120.015
X125.73Y-120.015
X128.27Y-120.015
T6
X172.23Y-100.33
T0
M30
